<svg width="691" height="284" viewBox="0 0 691 284" fill="none" xmlns="http://www.w3.org/2000/svg">
<path d="M295.586 214.994L237.567 227.896C237.567 227.896 225.736 226.569 236.955 210.285C237.963 208.819 239.158 207.241 240.564 205.528L270.633 190.984L270.353 189.028L263.952 144.521L261.477 127.294L280.349 109.998L283.952 106.694L331.846 150.365L331.501 150.987L311.485 186.662L295.586 214.994Z" fill="#ED9DA0"/>
<path d="M274.133 202.024L216.114 214.926C215.242 214.829 214.402 214.55 213.648 214.109C212.894 213.668 212.243 213.074 211.739 212.367C211.235 211.659 210.889 210.854 210.724 210.005C210.559 209.157 210.578 208.283 210.781 207.442C211.062 205.778 211.59 204.165 212.35 202.653C214.192 199.037 216.462 195.647 219.111 192.555L249.18 178.011L245.493 152.379L243.657 139.595L242.468 131.33L240.024 114.32L262.499 93.7207L286.978 116.035L310.396 137.395L307.235 143.018L303.466 149.737L285.382 181.979L281.698 188.546L274.133 202.024Z" fill="#ED9DA0"/>
<path d="M375.003 193.013C375.003 193.013 353.262 191.587 345.132 177.088C342.558 172.29 341.565 166.819 342.294 161.439L333.434 144.174L320.823 119.571L288.653 114.564L286.975 116.032L263.648 136.461L256.512 142.712L245.491 152.374L192.047 199.183C189.92 202.92 187.185 206.288 183.953 209.155C180.984 211.873 177.716 214.256 174.21 216.26C164.013 222.093 148.769 226.628 126.846 224.246L11.2933 254.563L0 178.166L96.9205 146.753L239.061 55.0977L335.013 79.3042L379.508 141.587L375.003 193.013Z" fill="#ED9DA0"/>
<path d="M672.501 185.642L394.728 282.454C387.861 284.838 380.315 284.44 373.745 281.347C367.175 278.254 362.118 272.719 359.683 265.955L311.962 132.908C309.543 126.139 309.947 118.7 313.085 112.224C316.223 105.747 321.838 100.762 328.699 98.3609L606.475 1.54677C613.342 -0.837153 620.888 -0.43892 627.457 2.65413C634.027 5.74718 639.084 11.2826 641.52 18.0462L689.237 151.091C691.656 157.861 691.252 165.299 688.114 171.776C684.976 178.252 679.361 183.238 672.5 185.639L672.501 185.642Z" fill="#1E3A8A"/>
<path opacity="0.096" d="M689.24 151.091L689.493 151.795C690.641 154.996 691.138 158.389 690.955 161.78C690.773 165.171 689.914 168.493 688.43 171.557C686.945 174.621 684.862 177.366 682.301 179.636C679.739 181.907 676.75 183.658 673.502 184.789L394.339 282.084C387.782 284.369 380.572 283.993 374.296 281.038C368.02 278.083 363.191 272.792 360.872 266.328L360.62 265.624L689.24 151.091Z" fill="#F2F2F2"/>
<path d="M377.395 129.248C358.982 141.192 335.384 132.204 327.132 119.111L328.449 118.373C344.123 108.743 367.401 114.11 377.395 129.248Z" fill="#F2F2F2"/>
<path d="M608.125 163.133C603.618 164.704 599.561 164.631 596.063 162.919C588.158 159.047 584.453 147.567 581.469 138.34C580.601 135.657 579.783 133.122 578.949 131.05L578.937 131.017C577.486 126.907 577.738 122.399 579.64 118.472C581.541 114.544 584.938 111.515 589.092 110.042L626.454 97.0201C630.955 95.451 635.008 95.5224 638.498 97.2345C646.401 101.101 650.113 112.578 653.096 121.799C653.964 124.488 654.788 127.029 655.624 129.103C657.082 133.217 656.834 137.731 654.933 141.665C653.032 145.599 649.632 148.634 645.473 150.11L608.125 163.133ZM580.5 130.463C581.352 132.589 582.178 135.141 583.053 137.843C585.938 146.774 589.529 157.887 596.802 161.449C599.924 162.98 603.445 163.023 607.568 161.586L644.92 148.568C648.661 147.241 651.72 144.513 653.433 140.977C655.146 137.44 655.375 133.38 654.07 129.678C653.224 127.581 652.394 125.016 651.515 122.298C648.627 113.372 645.033 102.263 637.763 98.705C634.645 97.1783 631.126 97.135 627.009 98.5689L589.653 111.59C585.916 112.916 582.86 115.641 581.148 119.174C579.436 122.707 579.206 126.762 580.508 130.461L580.5 130.463Z" fill="#F2F2F2"/>
<path d="M369.65 133.551C363.084 135.795 356.012 136.178 349.237 134.656C339.341 132.517 330.357 126.691 325.8 119.458L325.344 118.733L327.398 117.582C343.309 107.812 367.17 113.109 377.465 128.705L377.917 129.386L377.227 129.835C374.863 131.371 372.319 132.619 369.65 133.551ZM327.686 119.309C332.149 125.847 340.455 131.075 349.594 133.053C358.478 135.098 367.823 133.612 375.604 128.915C365.53 114.55 343.212 109.785 328.265 118.983L327.686 119.309Z" fill="#3F3D56"/>
<path d="M379.408 229.04C377.076 229.95 374.536 230.218 372.062 229.813C369.587 229.409 367.271 228.347 365.361 226.743C363.127 224.818 361.433 222.358 360.443 219.601C359.453 216.843 359.2 213.88 359.709 210.998C360.18 208.518 361.339 206.214 363.058 204.343C364.776 202.472 366.986 201.107 369.444 200.399L419.224 183.049C421.587 182.083 424.175 181.779 426.702 182.171C429.229 182.563 431.597 183.635 433.546 185.27C435.778 187.196 437.47 189.656 438.458 192.414C439.446 195.171 439.698 198.133 439.188 201.015C438.205 206.079 434.74 209.809 429.45 211.595L379.67 228.944L379.408 229.04ZM369.753 202.031C367.629 202.677 365.723 203.882 364.242 205.515C362.76 207.148 361.757 209.149 361.342 211.301C360.883 213.898 361.111 216.566 362.002 219.051C362.894 221.536 364.419 223.752 366.432 225.486C368.157 226.928 370.254 227.87 372.49 228.208C374.725 228.547 377.012 228.268 379.097 227.403L428.899 210.044C431.074 209.426 433.033 208.227 434.559 206.579C436.085 204.931 437.119 202.898 437.545 200.707C438.004 198.11 437.776 195.441 436.885 192.957C435.993 190.472 434.468 188.256 432.455 186.521C430.726 185.082 428.628 184.14 426.392 183.801C424.155 183.461 421.867 183.736 419.779 184.596L369.968 201.957L369.74 202.035L369.753 202.031Z" fill="#F2F2F2"/>
<path d="M608.457 123.989L592.764 129.459C592.248 129.639 591.702 129.716 591.156 129.688C590.61 129.659 590.075 129.525 589.582 129.293C589.088 129.06 588.646 128.734 588.281 128.334C587.915 127.933 587.633 127.465 587.451 126.957C587.269 126.449 587.19 125.91 587.219 125.372C587.248 124.834 587.384 124.306 587.62 123.82C587.856 123.334 588.186 122.898 588.593 122.537C588.999 122.177 589.474 121.899 589.989 121.72L605.683 116.249C606.724 115.886 607.868 115.946 608.865 116.416C609.861 116.885 610.627 117.725 610.995 118.751C611.363 119.778 611.303 120.906 610.827 121.888C610.351 122.87 609.498 123.626 608.457 123.989Z" fill="#D6D6E3"/>
<path d="M612.896 136.365L597.203 141.835C596.161 142.198 595.017 142.138 594.021 141.669C593.024 141.199 592.258 140.359 591.89 139.333C591.522 138.306 591.583 137.178 592.059 136.196C592.535 135.214 593.387 134.458 594.428 134.095L610.121 128.625C611.162 128.262 612.307 128.322 613.303 128.792C614.3 129.261 615.066 130.101 615.434 131.127C615.802 132.154 615.741 133.282 615.265 134.264C614.789 135.246 613.937 136.002 612.896 136.365Z" fill="#D6D6E3"/>
<path d="M617.335 148.741L601.641 154.211C601.126 154.39 600.58 154.468 600.034 154.44C599.488 154.411 598.953 154.277 598.459 154.045C597.966 153.812 597.524 153.486 597.158 153.086C596.793 152.685 596.511 152.217 596.329 151.709C596.146 151.201 596.068 150.662 596.097 150.124C596.126 149.586 596.262 149.058 596.497 148.572C596.733 148.086 597.064 147.65 597.47 147.289C597.877 146.929 598.351 146.651 598.867 146.471L614.56 141.001C615.601 140.638 616.746 140.698 617.742 141.168C618.738 141.637 619.505 142.477 619.873 143.503C620.241 144.53 620.18 145.658 619.704 146.64C619.228 147.622 618.376 148.378 617.335 148.741Z" fill="#D6D6E3"/>
<path d="M635.921 114.416L620.227 119.887C619.186 120.249 618.042 120.19 617.045 119.72C616.049 119.251 615.283 118.411 614.915 117.385C614.547 116.358 614.607 115.23 615.083 114.248C615.559 113.265 616.412 112.51 617.453 112.147L633.146 106.677C634.187 106.314 635.332 106.374 636.328 106.843C637.325 107.313 638.091 108.153 638.459 109.179C638.827 110.205 638.766 111.334 638.29 112.316C637.814 113.298 636.962 114.054 635.921 114.416Z" fill="#D6D6E3"/>
<path d="M640.36 126.792L624.666 132.263C624.151 132.442 623.604 132.52 623.058 132.491C622.513 132.463 621.978 132.329 621.484 132.096C620.991 131.864 620.549 131.538 620.183 131.137C619.818 130.737 619.536 130.269 619.354 129.761C619.171 129.252 619.092 128.714 619.121 128.176C619.15 127.637 619.287 127.11 619.522 126.624C619.758 126.137 620.089 125.702 620.495 125.341C620.902 124.981 621.376 124.703 621.892 124.523L637.585 119.053C638.626 118.69 639.771 118.75 640.767 119.219C641.763 119.689 642.53 120.529 642.898 121.555C643.266 122.581 643.205 123.71 642.729 124.692C642.253 125.674 641.401 126.43 640.36 126.792Z" fill="#D6D6E3"/>
<path d="M644.798 139.167L629.104 144.637C628.589 144.816 628.042 144.894 627.496 144.865C626.951 144.837 626.416 144.703 625.922 144.47C625.429 144.238 624.987 143.912 624.621 143.511C624.256 143.111 623.974 142.643 623.792 142.135C623.609 141.626 623.53 141.088 623.559 140.55C623.588 140.011 623.725 139.484 623.96 138.998C624.196 138.511 624.527 138.076 624.933 137.715C625.34 137.355 625.814 137.077 626.33 136.897L642.023 131.427C642.538 131.247 643.085 131.17 643.631 131.198C644.177 131.227 644.712 131.361 645.205 131.593C645.698 131.826 646.14 132.152 646.506 132.552C646.872 132.953 647.154 133.421 647.336 133.929C647.518 134.437 647.597 134.976 647.568 135.514C647.539 136.052 647.403 136.58 647.167 137.066C646.931 137.552 646.601 137.988 646.194 138.348C645.788 138.709 645.313 138.988 644.798 139.167Z" fill="#D6D6E3"/>
<path d="M651.955 47.1292L323.293 161.543L323.847 163.09L652.509 48.6762L651.955 47.1292Z" fill="#3F3D56"/>
<path d="M672.501 185.642L394.728 282.454C387.861 284.838 380.315 284.44 373.745 281.347C367.175 278.254 362.118 272.719 359.683 265.955L311.962 132.908C309.543 126.139 309.947 118.7 313.085 112.224C316.223 105.747 321.838 100.762 328.699 98.3609L606.475 1.54677C613.342 -0.837153 620.888 -0.43892 627.457 2.65413C634.027 5.74718 639.084 11.2826 641.52 18.0462L689.237 151.091C691.656 157.861 691.252 165.299 688.114 171.776C684.976 178.252 679.361 183.238 672.5 185.639L672.501 185.642ZM329.256 99.9046C322.809 102.159 317.533 106.843 314.585 112.928C311.637 119.013 311.258 126.002 313.531 132.362L361.249 265.407C363.536 271.762 368.287 276.963 374.459 279.87C380.632 282.776 387.722 283.15 394.173 280.909L671.947 184.094C678.394 181.839 683.67 177.156 686.618 171.071C689.566 164.986 689.945 157.997 687.672 151.637L639.954 18.5964C637.668 12.2403 632.918 7.03754 626.746 4.12989C620.573 1.22225 613.483 0.847189 607.03 3.08701L329.256 99.9046Z" fill="#3F3D56"/>
<path opacity="0.15" d="M247.187 206.621L246.308 204.665L282.118 189.009L290.655 159.486L277.789 149.231L279.153 147.566L293.138 158.713L283.926 190.557L247.187 206.621Z" fill="black"/>
<path opacity="0.1" d="M212.349 202.656L202.936 207.176L183.956 209.157C180.984 211.875 177.714 214.257 174.207 216.259L157.561 215.715L129.447 214.848L224.493 134.955L243.653 139.594C243.653 139.594 211.461 204.521 212.349 202.656Z" fill="black"/>
<path d="M345.132 177.089C342.637 177.563 339.902 177.955 336.879 178.255C321.275 179.793 288.29 181.837 285.381 181.981C265.843 182.887 253.559 182.876 253.559 182.876L212.349 202.656L202.936 207.176L126.641 215.141L229.951 128.301L242.466 131.329L263.648 136.465L286.984 142.12L307.233 143.018L333.435 144.177L354.612 145.112C358.281 145.238 361.751 146.79 364.264 149.429C366.776 152.068 368.127 155.58 368.022 159.197C367.69 166.086 362.844 173.695 345.132 177.089Z" fill="#ED9DA0"/>
<path opacity="0.15" d="M353.164 171.853C352.826 171.751 344.869 169.283 342.345 162.379C340.647 157.737 341.842 152.306 345.896 146.235L347.708 147.412C344.054 152.882 342.934 157.67 344.38 161.64C346.527 167.534 353.726 169.784 353.798 169.805L353.164 171.853Z" fill="black"/>
<path opacity="0.15" d="M250.223 183.283L213.765 200.793L214.716 202.716L251.174 185.206L250.223 183.283Z" fill="black"/>
<path opacity="0.15" d="M236.611 133.65L288.256 113.571L289.052 115.561L244.423 132.911L282.352 139.896L281.953 141.998L236.611 133.65Z" fill="black"/>
</svg>
