<svg width="801" height="476" viewBox="0 0 801 476" fill="none" xmlns="http://www.w3.org/2000/svg">
<g clip-path="url(#clip0_30_557)">
<path d="M718.488 386.806V388.23C718.491 390.589 719.429 392.852 721.098 394.52C722.766 396.189 725.028 397.127 727.388 397.13H791.483C793.843 397.13 796.107 396.192 797.776 394.523C799.445 392.854 800.383 390.59 800.383 388.23V386.806C800.388 384.722 799.657 382.703 798.318 381.106C797.873 380.576 797.37 380.098 796.818 379.682C796.818 379.682 761.581 378.882 761.581 377.902H727.391C725.032 377.906 722.77 378.844 721.102 380.513C719.434 382.181 718.495 384.443 718.491 386.802L718.488 386.806Z" fill="#CCCCCC"/>
<path d="M764.581 396.778H755.323V456.598H764.581V396.778Z" fill="#CCCCCC"/>
<path d="M790.929 456.273C790.929 457.273 776.9 456.66 759.595 456.66C742.29 456.66 728.261 457.273 728.261 456.273C728.261 455.273 742.29 447.34 759.595 447.34C776.9 447.34 790.929 455.273 790.929 456.273Z" fill="#CCCCCC"/>
<path d="M614.283 0H6C2.68629 0 0 2.68629 0 6V338.882C0 342.196 2.68629 344.882 6 344.882H614.283C617.597 344.882 620.283 342.196 620.283 338.882V6C620.283 2.68629 617.597 0 614.283 0Z" fill="#E6E6E6"/>
<path d="M606.175 12.002H14.737C12.5279 12.002 10.737 13.7928 10.737 16.002V329.513C10.737 331.722 12.5279 333.513 14.737 333.513H606.175C608.384 333.513 610.175 331.722 610.175 329.513V16.002C610.175 13.7928 608.384 12.002 606.175 12.002Z" fill="white"/>
<path d="M74.667 139.416C74.3343 138.995 74.1022 138.504 73.9881 137.98C73.8741 137.456 73.8812 136.913 74.0091 136.392C77.0511 123.651 77.0511 110.374 74.0091 97.633C73.8819 97.1123 73.8751 96.5695 73.9893 96.0459C74.1035 95.5222 74.3356 95.0314 74.6681 94.611C74.9934 94.1984 75.4083 93.8653 75.8815 93.6367C76.3546 93.4082 76.8736 93.2903 77.399 93.292H109.917C110.748 93.2936 111.552 93.5901 112.184 94.1286C112.817 94.6672 113.238 95.413 113.373 96.233C115.494 110.01 115.494 124.03 113.373 137.806C113.238 138.626 112.817 139.372 112.184 139.91C111.552 140.449 110.748 140.745 109.917 140.747H77.399C76.8724 140.747 76.3527 140.628 75.8794 140.397C75.406 140.166 74.9913 139.831 74.667 139.416Z" fill="#1E3A8A"/>
<path d="M103.646 110.796H86.516C85.8779 110.795 85.2661 110.541 84.8149 110.09C84.3637 109.639 84.1098 109.027 84.109 108.389V107.367C84.1098 106.729 84.3637 106.117 84.8149 105.666C85.2661 105.215 85.8779 104.961 86.516 104.96H103.646C104.284 104.961 104.896 105.215 105.347 105.666C105.798 106.117 106.052 106.729 106.053 107.367V108.389C106.052 109.027 105.798 109.639 105.347 110.09C104.896 110.541 104.284 110.795 103.646 110.796Z" fill="white"/>
<path d="M103.646 120.864H86.516C85.8779 120.863 85.2661 120.61 84.8149 120.158C84.3637 119.707 84.1098 119.095 84.109 118.457V117.437C84.1098 116.799 84.3637 116.187 84.8149 115.736C85.2661 115.285 85.8779 115.031 86.516 115.03H103.646C104.284 115.031 104.896 115.285 105.347 115.736C105.798 116.187 106.052 116.799 106.053 117.437V118.459C106.052 119.097 105.798 119.708 105.346 120.159C104.895 120.61 104.284 120.863 103.646 120.864Z" fill="white"/>
<path d="M573.286 49.9109H46.716C46.4852 49.9109 46.2637 49.8192 46.1005 49.656C45.9372 49.4927 45.8455 49.2713 45.8455 49.0404C45.8455 48.8096 45.9372 48.5881 46.1005 48.4249C46.2637 48.2616 46.4852 48.1699 46.716 48.1699H573.286C573.517 48.1699 573.738 48.2616 573.902 48.4249C574.065 48.5881 574.157 48.8096 574.157 49.0404C574.157 49.2713 574.065 49.4927 573.902 49.656C573.738 49.8192 573.517 49.9109 573.286 49.9109Z" fill="#3F3D56"/>
<path d="M195.549 307.216C195.318 307.216 195.097 307.124 194.934 306.961C194.771 306.798 194.679 306.577 194.679 306.346V19.997C194.679 19.7661 194.771 19.5447 194.934 19.3814C195.097 19.2182 195.319 19.1265 195.549 19.1265C195.78 19.1265 196.002 19.2182 196.165 19.3814C196.328 19.5447 196.42 19.7661 196.42 19.997V306.346C196.42 306.577 196.328 306.798 196.165 306.961C196.002 307.124 195.78 307.216 195.549 307.216Z" fill="#3F3D56"/>
<path d="M326.974 307.216C326.743 307.216 326.522 307.124 326.359 306.961C326.196 306.798 326.104 306.577 326.104 306.346V19.997C326.104 19.7661 326.196 19.5447 326.359 19.3814C326.522 19.2182 326.744 19.1265 326.975 19.1265C327.205 19.1265 327.427 19.2182 327.59 19.3814C327.753 19.5447 327.845 19.7661 327.845 19.997V306.346C327.845 306.46 327.823 306.574 327.779 306.679C327.735 306.785 327.671 306.881 327.59 306.962C327.509 307.042 327.413 307.106 327.307 307.15C327.202 307.194 327.088 307.216 326.974 307.216Z" fill="#3F3D56"/>
<path d="M458.398 307.216C458.167 307.216 457.946 307.124 457.783 306.961C457.62 306.798 457.528 306.577 457.528 306.346V19.997C457.528 19.7661 457.62 19.5447 457.783 19.3814C457.946 19.2182 458.168 19.1265 458.399 19.1265C458.629 19.1265 458.851 19.2182 459.014 19.3814C459.177 19.5447 459.269 19.7661 459.269 19.997V306.346C459.269 306.577 459.177 306.798 459.014 306.961C458.851 307.124 458.629 307.216 458.398 307.216Z" fill="#3F3D56"/>
<path d="M438.307 185.006H406.507C405.468 185.005 404.473 184.592 403.738 183.858C403.004 183.123 402.591 182.128 402.59 181.089V143.56C402.591 142.522 403.004 141.526 403.738 140.791C404.473 140.057 405.468 139.644 406.507 139.643H438.307C439.346 139.644 440.341 140.057 441.076 140.791C441.81 141.526 442.223 142.522 442.224 143.56V181.09C442.223 182.128 441.81 183.124 441.075 183.858C440.341 184.592 439.345 185.005 438.307 185.006Z" fill="#090814"/>
<path d="M376.51 198.932H344.71C343.671 198.931 342.676 198.518 341.941 197.783C341.207 197.049 340.794 196.053 340.793 195.015V157.486C340.794 156.447 341.207 155.452 341.941 154.717C342.676 153.983 343.671 153.57 344.71 153.569H376.51C377.549 153.57 378.544 153.983 379.279 154.717C380.013 155.452 380.426 156.447 380.427 157.486V195.016C380.426 196.054 380.013 197.05 379.278 197.784C378.544 198.518 377.548 198.931 376.51 198.932Z" fill="#E6E6E6"/>
<path d="M243.346 258.116H211.546C210.507 258.115 209.512 257.702 208.777 256.967C208.043 256.233 207.63 255.237 207.629 254.199V216.67C207.63 215.631 208.043 214.636 208.777 213.901C209.512 213.167 210.507 212.754 211.546 212.753H243.346C244.385 212.754 245.38 213.167 246.115 213.901C246.849 214.636 247.262 215.631 247.263 216.67V254.2C247.262 255.238 246.849 256.234 246.114 256.968C245.38 257.702 244.384 258.115 243.346 258.116Z" fill="#E6E6E6"/>
<path d="M82.329 208.506H50.5291C49.4905 208.505 48.4948 208.092 47.7605 207.358C47.0261 206.623 46.6131 205.628 46.6121 204.589V167.06C46.6131 166.022 47.0261 165.026 47.7605 164.291C48.4948 163.557 49.4905 163.144 50.5291 163.143H82.329C83.3676 163.144 84.3633 163.557 85.0976 164.291C85.832 165.026 86.245 166.022 86.2461 167.06V204.59C86.2447 205.628 85.8316 206.624 85.0973 207.358C84.3629 208.092 83.3674 208.505 82.329 208.506Z" fill="#090814"/>
<path d="M171.975 139.747H140.175C139.137 139.746 138.141 139.333 137.406 138.598C136.672 137.864 136.259 136.868 136.258 135.83V98.3008C136.259 97.2623 136.672 96.2665 137.406 95.5322C138.141 94.7978 139.137 94.3848 140.175 94.3838H171.975C173.014 94.3848 174.009 94.7978 174.744 95.5322C175.478 96.2665 175.891 97.2623 175.892 98.3008V135.831C175.891 136.869 175.478 137.865 174.743 138.599C174.009 139.333 173.013 139.746 171.975 139.747Z" fill="#E6E6E6"/>
<path d="M145.939 35.6632H96.329C95.4057 35.6632 94.5202 35.2964 93.8672 34.6435C93.2143 33.9906 92.8475 33.1051 92.8475 32.1817C92.8475 31.2584 93.2143 30.3728 93.8672 29.7199C94.5202 29.067 95.4057 28.7002 96.329 28.7002H145.939C146.862 28.7002 147.748 29.067 148.401 29.7199C149.054 30.3728 149.421 31.2584 149.421 32.1817C149.421 33.1051 149.054 33.9906 148.401 34.6435C147.748 35.2964 146.862 35.6632 145.939 35.6632Z" fill="#E6E6E6"/>
<path d="M286.065 35.6632H236.455C235.532 35.6632 234.646 35.2964 233.993 34.6435C233.34 33.9906 232.974 33.1051 232.974 32.1817C232.974 31.2584 233.34 30.3728 233.993 29.7199C234.646 29.067 235.532 28.7002 236.455 28.7002H286.065C286.988 28.7002 287.874 29.067 288.527 29.7199C289.18 30.3728 289.547 31.2584 289.547 32.1817C289.547 33.1051 289.18 33.9906 288.527 34.6435C287.874 35.2964 286.988 35.6632 286.065 35.6632Z" fill="#E6E6E6"/>
<path d="M417.492 35.6632H367.882C366.959 35.6632 366.073 35.2964 365.42 34.6435C364.767 33.9906 364.401 33.1051 364.401 32.1817C364.401 31.2584 364.767 30.3728 365.42 29.7199C366.073 29.067 366.959 28.7002 367.882 28.7002H417.492C418.415 28.7002 419.301 29.067 419.954 29.7199C420.607 30.3728 420.974 31.2584 420.974 32.1817C420.974 33.1051 420.607 33.9906 419.954 34.6435C419.301 35.2964 418.415 35.6632 417.492 35.6632Z" fill="#E6E6E6"/>
<path d="M540.212 35.6632H490.602C489.679 35.6632 488.793 35.2964 488.14 34.6435C487.487 33.9906 487.12 33.1051 487.12 32.1817C487.12 31.2584 487.487 30.3728 488.14 29.7199C488.793 29.067 489.679 28.7002 490.602 28.7002H540.212C541.135 28.7002 542.021 29.067 542.674 29.7199C543.327 30.3728 543.693 31.2584 543.693 32.1817C543.693 33.1051 543.327 33.9906 542.674 34.6435C542.021 35.2964 541.135 35.6632 540.212 35.6632Z" fill="#E6E6E6"/>
<path d="M669.565 382.989C669.124 382.84 668.723 382.593 668.393 382.266C668.063 381.939 667.811 381.541 667.658 381.102C663.85 370.396 657.575 360.736 649.341 352.905C649.002 352.586 648.741 352.194 648.576 351.759C648.411 351.324 648.348 350.857 648.391 350.394C648.432 349.939 648.576 349.499 648.812 349.107C649.048 348.716 649.371 348.384 649.755 348.136L673.415 332.767C674.02 332.375 674.745 332.21 675.461 332.302C676.176 332.395 676.836 332.738 677.321 333.272C685.375 342.292 692 352.491 696.967 363.516C697.257 364.177 697.303 364.919 697.097 365.61C696.89 366.302 696.445 366.897 695.84 367.291L672.18 382.66C671.798 382.91 671.364 383.07 670.911 383.127C670.457 383.184 669.997 383.137 669.565 382.989Z" fill="#1E3A8A"/>
<path d="M677.122 348.473L664.659 356.568C664.195 356.869 663.63 356.973 663.088 356.858C662.547 356.743 662.073 356.418 661.771 355.955L661.288 355.21C660.986 354.746 660.882 354.181 660.997 353.639C661.112 353.098 661.437 352.624 661.901 352.322L674.364 344.227C674.828 343.925 675.393 343.821 675.935 343.936C676.476 344.051 676.95 344.376 677.252 344.84L677.735 345.584C678.036 346.048 678.141 346.613 678.026 347.155C677.911 347.697 677.586 348.171 677.122 348.473Z" fill="white"/>
<path d="M681.879 355.797L669.417 363.892C668.952 364.193 668.387 364.297 667.846 364.182C667.304 364.067 666.83 363.742 666.528 363.278L666.045 362.534C665.744 362.07 665.639 361.505 665.754 360.963C665.869 360.422 666.194 359.948 666.658 359.646L679.121 351.55C679.585 351.249 680.15 351.145 680.692 351.26C681.233 351.375 681.707 351.7 682.009 352.164L682.492 352.907C682.794 353.372 682.898 353.937 682.783 354.479C682.668 355.02 682.343 355.494 681.879 355.797Z" fill="white"/>
<path d="M571.473 131.914H539.673C538.634 131.913 537.639 131.5 536.904 130.765C536.17 130.031 535.757 129.035 535.756 127.997V90.4678C535.757 89.4292 536.17 88.4335 536.904 87.6992C537.639 86.9648 538.634 86.5518 539.673 86.5508H571.473C572.512 86.5518 573.507 86.9648 574.242 87.6992C574.976 88.4335 575.389 89.4292 575.39 90.4678V127.998C575.389 129.036 574.976 130.032 574.241 130.766C573.507 131.5 572.511 131.913 571.473 131.914Z" fill="#E6E6E6"/>
<path d="M546.232 198.932H514.432C513.393 198.931 512.398 198.518 511.663 197.783C510.929 197.049 510.516 196.053 510.515 195.015V157.486C510.516 156.447 510.929 155.452 511.663 154.717C512.398 153.983 513.393 153.57 514.432 153.569H546.232C547.271 153.57 548.266 153.983 549.001 154.717C549.735 155.452 550.148 156.447 550.149 157.486V195.016C550.148 196.054 549.735 197.05 549 197.784C548.266 198.518 547.27 198.931 546.232 198.932Z" fill="#E6E6E6"/>
<path d="M129.649 249.407C129.316 248.986 129.084 248.495 128.97 247.971C128.856 247.447 128.863 246.904 128.991 246.383C132.033 233.642 132.033 220.364 128.991 207.624C128.864 207.103 128.857 206.56 128.971 206.037C129.085 205.513 129.318 205.022 129.65 204.602C129.975 204.189 130.39 203.856 130.863 203.627C131.337 203.399 131.856 203.281 132.381 203.283H164.899C165.73 203.284 166.534 203.581 167.166 204.119C167.799 204.658 168.22 205.404 168.355 206.224C170.476 220 170.476 234.02 168.355 247.797C168.22 248.617 167.799 249.363 167.166 249.901C166.534 250.44 165.73 250.736 164.899 250.738H132.381C131.854 250.738 131.335 250.618 130.861 250.388C130.388 250.157 129.973 249.822 129.649 249.407Z" fill="#1E3A8A"/>
<path d="M158.628 220.787H141.498C140.86 220.786 140.248 220.532 139.797 220.081C139.346 219.63 139.092 219.018 139.091 218.38V217.358C139.092 216.72 139.346 216.108 139.797 215.657C140.248 215.205 140.86 214.951 141.498 214.951H158.628C159.266 214.951 159.878 215.205 160.329 215.657C160.78 216.108 161.034 216.72 161.035 217.358V218.38C161.034 219.018 160.78 219.63 160.329 220.081C159.878 220.532 159.266 220.786 158.628 220.787Z" fill="white"/>
<path d="M158.628 230.855H141.498C140.86 230.854 140.248 230.6 139.797 230.149C139.346 229.698 139.092 229.086 139.091 228.448V227.428C139.092 226.79 139.346 226.178 139.797 225.727C140.248 225.276 140.86 225.022 141.498 225.021H158.628C159.266 225.022 159.878 225.276 160.329 225.727C160.78 226.178 161.034 226.79 161.035 227.428V228.45C161.034 229.088 160.78 229.699 160.328 230.15C159.877 230.601 159.266 230.854 158.628 230.855Z" fill="white"/>
<path d="M262.02 160.999C261.687 160.578 261.455 160.087 261.341 159.563C261.227 159.039 261.234 158.496 261.362 157.975C264.404 145.234 264.404 131.957 261.362 119.216C261.235 118.695 261.228 118.153 261.342 117.629C261.457 117.105 261.689 116.614 262.021 116.194C262.346 115.781 262.761 115.448 263.235 115.22C263.708 114.991 264.227 114.873 264.752 114.875H297.27C298.101 114.877 298.905 115.173 299.537 115.712C300.17 116.25 300.592 116.996 300.726 117.816C302.847 131.593 302.847 145.613 300.726 159.389C300.592 160.209 300.17 160.955 299.537 161.493C298.905 162.032 298.101 162.328 297.27 162.33H264.752C264.225 162.33 263.706 162.211 263.232 161.98C262.759 161.749 262.344 161.414 262.02 160.999Z" fill="#1E3A8A"/>
<path d="M290.999 132.379H273.869C273.231 132.378 272.619 132.124 272.168 131.673C271.717 131.222 271.463 130.61 271.462 129.972V128.95C271.463 128.312 271.717 127.7 272.168 127.249C272.619 126.798 273.231 126.544 273.869 126.543H290.999C291.637 126.544 292.249 126.798 292.7 127.249C293.151 127.7 293.405 128.312 293.406 128.95V129.972C293.405 130.61 293.151 131.222 292.7 131.673C292.249 132.124 291.637 132.378 290.999 132.379Z" fill="white"/>
<path d="M290.999 142.447H273.869C273.231 142.446 272.619 142.193 272.168 141.741C271.717 141.29 271.463 140.678 271.462 140.04V139.02C271.463 138.382 271.717 137.77 272.168 137.319C272.619 136.868 273.231 136.614 273.869 136.613H290.999C291.637 136.614 292.249 136.868 292.7 137.319C293.151 137.77 293.405 138.382 293.406 139.02V140.042C293.405 140.68 293.151 141.291 292.699 141.742C292.248 142.193 291.637 142.446 290.999 142.447Z" fill="white"/>
<path d="M352.387 120.144C352.054 119.723 351.822 119.232 351.708 118.708C351.594 118.184 351.601 117.641 351.729 117.12C354.771 104.379 354.771 91.1016 351.729 78.361C351.602 77.8404 351.595 77.2976 351.709 76.7739C351.823 76.2502 352.056 75.7595 352.388 75.339C352.713 74.9265 353.128 74.5933 353.601 74.3648C354.075 74.1362 354.594 74.0184 355.119 74.02H387.637C388.468 74.0216 389.271 74.3181 389.904 74.8567C390.537 75.3953 390.958 76.141 391.093 76.961C393.214 90.7375 393.214 104.758 391.093 118.534C390.958 119.354 390.537 120.1 389.904 120.638C389.271 121.177 388.468 121.473 387.637 121.475H355.119C354.592 121.475 354.073 121.356 353.599 121.125C353.126 120.894 352.711 120.559 352.387 120.144Z" fill="#1E3A8A"/>
<path d="M381.366 91.524H364.236C363.598 91.5232 362.986 91.2693 362.535 90.8181C362.084 90.3669 361.83 89.7551 361.829 89.117V88.095C361.83 87.4569 362.084 86.8451 362.535 86.3939C362.986 85.9426 363.598 85.6888 364.236 85.688H381.366C382.004 85.6888 382.616 85.9426 383.067 86.3939C383.518 86.8451 383.772 87.4569 383.773 88.095V89.117C383.772 89.7551 383.518 90.3669 383.067 90.8181C382.616 91.2693 382.004 91.5232 381.366 91.524Z" fill="white"/>
<path d="M381.366 101.592H364.236C363.598 101.591 362.986 101.338 362.535 100.886C362.084 100.435 361.83 99.8234 361.829 99.1853V98.1653C361.83 97.5272 362.084 96.9154 362.535 96.4642C362.986 96.0129 363.598 95.7591 364.236 95.7583H381.366C382.004 95.7591 382.616 96.0129 383.067 96.4642C383.518 96.9154 383.772 97.5272 383.773 98.1653V99.1873C383.772 99.8251 383.518 100.436 383.066 100.887C382.615 101.338 382.004 101.591 381.366 101.592Z" fill="white"/>
<path d="M478.812 125.594C478.479 125.173 478.247 124.682 478.133 124.158C478.019 123.634 478.026 123.091 478.154 122.57C481.196 109.829 481.196 96.5513 478.154 83.8107C478.027 83.2901 478.02 82.7473 478.134 82.2236C478.248 81.6999 478.481 81.2092 478.813 80.7887C479.138 80.3762 479.553 80.043 480.027 79.8145C480.5 79.586 481.019 79.4681 481.544 79.4697H514.062C514.893 79.4713 515.697 79.7678 516.329 80.3064C516.962 80.845 517.384 81.5907 517.518 82.4108C519.639 96.1873 519.639 110.207 517.518 123.984C517.384 124.804 516.962 125.55 516.329 126.088C515.697 126.627 514.893 126.923 514.062 126.925H481.544C481.017 126.925 480.498 126.805 480.024 126.575C479.551 126.344 479.136 126.009 478.812 125.594Z" fill="#1E3A8A"/>
<path d="M507.791 96.9737H490.661C490.023 96.9729 489.411 96.7191 488.96 96.2678C488.509 95.8166 488.255 95.2048 488.254 94.5667V93.5447C488.255 92.9066 488.509 92.2948 488.96 91.8436C489.411 91.3923 490.023 91.1385 490.661 91.1377H507.791C508.429 91.1385 509.041 91.3923 509.492 91.8436C509.943 92.2948 510.197 92.9066 510.198 93.5447V94.5667C510.197 95.2048 509.943 95.8166 509.492 96.2678C509.041 96.7191 508.429 96.9729 507.791 96.9737Z" fill="white"/>
<path d="M507.791 107.042H490.661C490.023 107.041 489.411 106.787 488.96 106.336C488.509 105.885 488.255 105.273 488.254 104.635V103.615C488.255 102.977 488.509 102.365 488.96 101.914C489.411 101.463 490.023 101.209 490.661 101.208H507.791C508.429 101.209 509.041 101.463 509.492 101.914C509.943 102.365 510.197 102.977 510.198 103.615V104.637C510.197 105.275 509.943 105.886 509.491 106.337C509.04 106.788 508.429 107.041 507.791 107.042Z" fill="white"/>
<path d="M737.484 288.753L735.363 275.494L749.683 269.66L751.805 289.818L737.484 288.753Z" fill="#ED9DA0"/>
<path d="M698.922 373.809C694.078 376.977 688.522 377.046 686.502 373.963C684.482 370.88 686.779 365.814 691.625 362.646C693.543 361.354 695.744 360.54 698.041 360.272L718.73 347.108L724.7 356.95L703.67 368.882C702.504 370.88 700.876 372.569 698.922 373.809Z" fill="#ED9DA0"/>
<path d="M745.208 291.013C746.994 291.16 748.728 291.688 750.292 292.562C751.856 293.437 753.214 294.637 754.274 296.082C755.334 297.527 756.071 299.182 756.436 300.937C756.801 302.691 756.785 304.503 756.389 306.251L747.756 344.358L708.019 367.587L703.128 355.157L730.228 334.984L731.679 302.92C731.755 301.239 732.169 299.591 732.896 298.074C733.624 296.557 734.65 295.202 735.913 294.091C737.176 292.979 738.65 292.134 740.247 291.605C741.844 291.076 743.531 290.875 745.208 291.013Z" fill="#E6E6E6"/>
<path d="M670.269 426.314L661.851 438.897L660.285 442.84L655.671 445.758L638.171 437.634L641.963 429.334L653.325 430.084L657.994 422.921L670.269 426.314Z" fill="#ED9DA0"/>
<path d="M641.171 435.372L641.345 437.107L661.533 442.536C661.533 442.536 656.142 449.71 655.241 451.203C654.34 452.696 625.978 435.569 622.071 432.395C618.164 429.221 621.878 426.167 621.878 426.167L644.635 428.477L641.17 435.377L641.171 435.372Z" fill="#090814"/>
<path d="M763.354 356.054L765.595 361.354C765.595 361.354 770.485 376.433 745.422 381.731C720.359 387.029 707.322 384.788 707.322 384.788L664.122 436.545L653.122 426.968L687.539 374.787C689.8 371.359 693.114 368.758 696.982 367.377L748.827 348.864L763.354 356.054Z" fill="#090814"/>
<path d="M697.32 448.234L691.783 462.325L691.093 466.511L687.207 470.345L668.376 466.139L670.31 457.219L681.571 455.529L684.606 447.535L697.32 448.234Z" fill="#ED9DA0"/>
<path d="M670.821 463.289L671.361 464.947L692.242 465.947C692.242 465.947 688.505 474.105 687.942 475.756C687.379 477.407 656.019 466.72 651.525 464.456C647.031 462.192 650.009 458.413 650.009 458.413L672.736 455.813L670.821 463.289Z" fill="#090814"/>
<path d="M775.294 355.94L778.613 360.64C778.613 360.64 786.606 374.33 763.248 384.849C739.89 395.368 726.671 395.959 726.671 395.959L695.5 455.736L682.708 448.724L707.487 384.502L731.641 362.338L775.295 355.938L775.294 355.94Z" fill="#090814"/>
<path d="M734.114 284.997L752.657 278.884L770.127 298.004C775.559 303.949 778.719 311.62 779.052 319.665L780.982 366.301L734.727 357.946L734.116 284.997H734.114Z" fill="#E6E6E6"/>
<path d="M715.231 377.412C710.387 380.58 704.831 380.649 702.811 377.566C700.791 374.483 703.088 369.417 707.934 366.249C709.853 364.957 712.053 364.143 714.35 363.875L735.042 350.712L741.012 360.554L719.979 372.486C718.813 374.484 717.185 376.173 715.231 377.413V377.412Z" fill="#ED9DA0"/>
<path d="M761.519 294.618C763.305 294.765 765.039 295.293 766.603 296.168C768.167 297.042 769.525 298.242 770.585 299.687C771.645 301.132 772.382 302.787 772.747 304.542C773.112 306.296 773.096 308.109 772.7 309.856L764.066 347.963L724.331 371.193L719.441 358.763L746.541 338.59L747.992 306.526C748.068 304.846 748.482 303.198 749.209 301.681C749.936 300.164 750.962 298.81 752.225 297.698C753.487 296.587 754.961 295.741 756.558 295.212C758.155 294.683 759.842 294.481 761.518 294.619L761.519 294.618Z" fill="#E6E6E6"/>
<path d="M741.626 281.098C750.671 281.098 758.004 273.766 758.004 264.72C758.004 255.675 750.671 248.342 741.626 248.342C732.581 248.342 725.248 255.675 725.248 264.72C725.248 273.766 732.581 281.098 741.626 281.098Z" fill="#ED9DA0"/>
<path d="M790.675 457.325H790.657C790.747 457.306 790.84 457.306 790.93 457.325C790.845 457.317 790.76 457.317 790.675 457.325Z" fill="white"/>
<path d="M787.812 434.625C787.95 434.673 788.012 434.696 788.026 434.702L787.818 434.627L787.812 434.625Z" fill="white"/>
<path d="M787.833 423.623L787.892 423.603C787.644 423.78 787.621 423.735 787.726 423.672C787.763 423.657 787.792 423.641 787.826 423.625L787.833 423.623Z" fill="white"/>
<path d="M741.524 244.161C741.097 244.41 740.524 244.033 740.383 243.555C740.296 243.064 740.358 242.557 740.561 242.101C740.829 241.31 741.09 240.526 741.361 239.735C741.807 238.017 742.623 236.417 743.752 235.048C745.601 233.122 748.552 232.631 751.194 232.988C754.594 233.447 757.947 235.288 759.529 238.332C761.111 241.376 760.435 245.632 757.578 247.532C761.653 252.2 763.068 257.404 762.845 263.589C762.622 269.774 755.875 275.476 751.475 279.838C750.493 279.245 749.6 276.452 750.142 275.438C750.684 274.424 749.906 273.251 750.576 272.313C751.246 271.375 751.807 272.868 751.131 271.937C750.704 271.35 752.368 270.005 751.737 269.654C748.67 267.954 747.649 264.132 745.724 261.205C744.545 259.441 742.991 257.959 741.173 256.865C739.354 255.772 737.316 255.094 735.205 254.881C732.872 254.585 730.508 255.125 728.535 256.405C727.567 257.059 726.801 257.972 726.326 259.04C725.85 260.107 725.683 261.287 725.844 262.444C725.27 261.862 724.836 261.156 724.576 260.381C724.316 259.606 724.237 258.781 724.345 257.971C724.453 257.16 724.744 256.385 725.198 255.705C725.651 255.024 726.254 254.456 726.96 254.044C726.547 252.623 726.501 251.119 726.827 249.675C727.152 248.231 727.839 246.893 728.822 245.786C730.805 243.599 738.847 243.975 741.742 244.549L741.519 244.166L741.525 244.16L741.524 244.161Z" fill="#090814"/>
<path d="M741.971 254.964C745.804 255.378 748.571 258.701 750.911 261.764C752.256 263.53 753.672 265.482 753.634 267.707C753.602 269.952 752.097 271.884 751.377 274.007C750.817 275.763 750.78 277.643 751.271 279.42C751.761 281.196 752.757 282.792 754.138 284.012C752.747 284.222 751.327 283.892 750.171 283.09C749.015 282.287 748.21 281.072 747.921 279.695C747.366 276.475 749.809 273.363 749.521 270.104C749.266 267.234 747.002 265.028 745.083 262.879C743.164 260.73 741.353 257.886 742.239 255.144L741.971 254.959V254.964Z" fill="#090814"/>
</g>
<defs>
<clipPath id="clip0_30_557">
<rect width="800.385" height="475.927" fill="white"/>
</clipPath>
</defs>
</svg>
