<svg width="723" height="446" viewBox="0 0 723 446" fill="none" xmlns="http://www.w3.org/2000/svg">
<path d="M713.487 445.999H9.82135C7.29916 445.996 4.8811 445.031 3.09764 443.316C1.31418 441.6 0.310975 439.274 0.308105 436.848V17.6182H723V436.848C722.997 439.274 721.994 441.6 720.211 443.316C718.427 445.031 716.009 445.996 713.487 445.999Z" fill="#E6E6E6"/>
<path d="M692.855 419.8H30.4514C27.9017 419.798 25.4572 418.822 23.6543 417.088C21.8513 415.354 20.8371 413.003 20.8342 410.55V65.2989C20.8373 62.8464 21.8516 60.4952 23.6545 58.7611C25.4574 57.027 27.9018 56.0516 30.4514 56.0488H692.855C695.404 56.0516 697.849 57.027 699.651 58.7611C701.454 60.4953 702.468 62.8465 702.471 65.2989V410.55C702.468 413.003 701.455 415.354 699.652 417.088C697.849 418.823 695.404 419.798 692.855 419.801V419.8Z" fill="white"/>
<path d="M722.692 30.564H0V9.15096C0.00286939 6.72482 1.00608 4.39885 2.78954 2.68331C4.57299 0.967766 6.99105 0.00276012 9.51324 0H713.179C715.701 0.00276012 718.119 0.967766 719.902 2.68331C721.686 4.39885 722.689 6.72482 722.692 9.15096V30.564Z" fill="#1E3A8A"/>
<path d="M23.3395 21.0782C26.4774 21.0782 29.0212 18.6313 29.0212 15.6128C29.0212 12.5944 26.4774 10.1475 23.3395 10.1475C20.2015 10.1475 17.6577 12.5944 17.6577 15.6128C17.6577 18.6313 20.2015 21.0782 23.3395 21.0782Z" fill="white"/>
<path d="M44.9056 21.0782C48.0436 21.0782 50.5874 18.6313 50.5874 15.6128C50.5874 12.5944 48.0436 10.1475 44.9056 10.1475C41.7677 10.1475 39.2239 12.5944 39.2239 15.6128C39.2239 18.6313 41.7677 21.0782 44.9056 21.0782Z" fill="white"/>
<path d="M66.4718 21.0782C69.6097 21.0782 72.1535 18.6313 72.1535 15.6128C72.1535 12.5944 69.6097 10.1475 66.4718 10.1475C63.3338 10.1475 60.79 12.5944 60.79 15.6128C60.79 18.6313 63.3338 21.0782 66.4718 21.0782Z" fill="white"/>
<path d="M157.187 117.958H88.9158V147.025H157.187V117.958Z" fill="#E6E6E6"/>
<path d="M293.73 178.246H225.458V207.314H293.73V178.246Z" fill="#E6E6E6"/>
<path d="M157.187 268.678H88.9158V297.745H157.187V268.678Z" fill="#FF6363"/>
<path d="M293.73 328.965H225.458V358.033H293.73V328.965Z" fill="#CB964F"/>
<path d="M633.965 359.109H565.694V388.177H633.965V359.109Z" fill="#CB964F"/>
<path d="M565.694 238.533H497.422V267.6H565.694V238.533Z" fill="#E6E6E6"/>
<path d="M430.271 238.533H293.73V267.6H430.271V238.533Z" fill="#CB964F"/>
<path d="M430.271 86.7363H293.73V115.804H430.271V86.7363Z" fill="#CB964F"/>
<path d="M20.6455 55.5146V420.474H703.355V55.5146H20.6455ZM701.118 85.7484H635.307V57.6681H701.116L701.118 85.7484ZM295.072 297.385V269.305H428.928V297.385H295.072ZM428.928 299.539V327.62H295.072V299.539H428.928ZM428.928 178.603V206.684H295.072V178.603H428.928ZM295.072 176.45V148.37H428.928V176.451L295.072 176.45ZM295.072 236.917V208.837H428.928V236.918L295.072 236.917ZM428.928 239.071V267.152H295.072V239.071H428.928ZM292.834 206.684H227.026V178.603H292.834V206.684ZM292.834 208.837V236.918H227.026V208.837H292.834ZM292.834 239.071V267.152H227.026V239.071H292.834ZM292.834 269.305V297.385H227.026V269.305H292.834ZM431.167 269.305H496.975V297.385H431.166L431.167 269.305ZM431.167 267.151V239.071H496.975V267.152L431.167 267.151ZM431.167 236.917V208.837H496.975V236.918L431.167 236.917ZM431.167 206.684V178.603H496.975V206.684H431.167ZM431.167 176.45V148.37H496.975V176.451L431.167 176.45ZM431.167 146.216V118.136H496.975V146.217L431.167 146.216ZM428.928 146.216H295.072V118.136H428.928V146.216ZM292.834 146.216H227.026V118.136H292.834V146.216ZM292.834 148.37V176.451H227.026V148.37H292.834ZM224.787 176.451H158.978V148.37H224.787V176.451ZM224.787 178.604V206.685H158.978V178.603L224.787 178.604ZM224.787 208.838V236.919H158.978V208.837L224.787 208.838ZM224.787 239.072V267.153H158.978V239.071L224.787 239.072ZM224.787 269.306V297.386H158.978V269.305L224.787 269.306ZM224.787 299.539V327.621H158.978V299.539L224.787 299.539ZM227.026 299.539H292.834V327.621H227.026V299.539ZM292.834 329.773V357.854H227.026V329.772L292.834 329.773ZM295.073 329.773H428.928V357.854H295.072L295.073 329.773ZM431.167 329.773H496.975V357.854H431.166L431.167 329.773ZM431.167 327.62V299.539H496.975V327.62H431.167ZM499.214 299.539H565.023V327.62H499.213L499.214 299.539ZM499.214 297.385V269.305H565.023V297.385H499.214ZM499.214 267.151V239.071H565.023V267.152L499.214 267.151ZM499.214 236.917V208.837H565.023V236.918L499.214 236.917ZM499.214 206.684V178.603H565.023V206.684H499.214ZM499.214 176.45V148.37H565.023V176.451L499.214 176.45ZM499.214 146.216V118.136H565.023V146.217L499.214 146.216ZM499.214 115.982V87.9019H565.023V115.981L499.214 115.982ZM496.975 115.982H431.166V87.9019H496.974L496.975 115.982ZM428.928 115.982H295.072V87.9019H428.928V115.982ZM292.834 115.982H227.026V87.9019H292.834V115.982ZM224.787 115.982H158.978V87.9019H224.787V115.982ZM224.787 118.136V146.217H158.978V118.136H224.787ZM156.739 146.217H90.9306V118.136H156.739V146.217ZM156.739 148.37V176.452H90.9306V148.37L156.739 148.37ZM156.739 178.604V206.685H90.9306V178.603L156.739 178.604ZM156.739 208.838V236.919H90.9306V208.837L156.739 208.838ZM156.739 239.072V267.153H90.9306V239.071L156.739 239.072ZM156.739 269.306V297.386H90.9306V269.305L156.739 269.306ZM156.739 299.539V327.621H90.9306V299.539L156.739 299.539ZM156.739 329.773V357.854H90.9306V329.772L156.739 329.773ZM158.978 329.773H224.787V357.854H158.978V329.773ZM224.787 360.007V388.088H158.978V360.006L224.787 360.007ZM227.026 360.007H292.834V388.088H227.026V360.007ZM295.073 360.007H428.928V388.088H295.072L295.073 360.007ZM431.167 360.007H496.975V388.088H431.166L431.167 360.007ZM499.214 360.007H565.023V388.088H499.213L499.214 360.007ZM499.214 357.854V329.772H565.023V357.853L499.214 357.854ZM567.262 329.773H633.07V357.854H567.262V329.773ZM567.262 327.62V299.539H633.07V327.62H567.262ZM567.262 297.386V269.305H633.07V297.385L567.262 297.386ZM567.262 267.152V239.071H633.07V267.152H567.262ZM567.262 236.918V208.837H633.07V236.918H567.262ZM567.262 206.685V178.603H633.07V206.684L567.262 206.685ZM567.262 176.451V148.37H633.07V176.451H567.262ZM567.262 146.217V118.136H633.07V146.217H567.262ZM567.262 115.983V87.9019H633.07V115.981L567.262 115.983ZM567.262 85.7493V57.6681H633.07V85.7493H567.262ZM565.023 85.7493H499.213V57.6681H565.022L565.023 85.7493ZM496.975 85.7493H431.166V57.6681H496.974L496.975 85.7493ZM428.928 85.7493H295.072V57.6681H428.928V85.7493ZM292.834 85.7493H227.026V57.6681H292.834V85.7493ZM224.787 85.7493H158.978V57.6681H224.787V85.7493ZM156.739 85.7493H90.9306V57.6681H156.739V85.7493ZM156.739 87.9028V115.981H90.9306V87.9019L156.739 87.9028ZM88.6927 115.981H22.8842V87.9019H88.6927V115.981ZM88.6927 118.134V146.215H22.8842V118.136L88.6927 118.134ZM88.6927 148.368V176.449H22.8842V148.37L88.6927 148.368ZM88.6927 178.602V206.682H22.8842V178.603L88.6927 178.602ZM88.6927 208.835V236.917H22.8842V208.837L88.6927 208.835ZM88.6927 239.069V267.15H22.8842V239.071L88.6927 239.069ZM88.6927 269.303V297.383H22.8842V269.305L88.6927 269.303ZM88.6927 299.537V327.618H22.8842V299.539L88.6927 299.537ZM88.6927 329.771V357.851H22.8842V329.772L88.6927 329.771ZM88.6927 360.004V388.086H22.8842V360.006L88.6927 360.004ZM90.9314 360.004H156.74V388.086H90.9306L90.9314 360.004ZM156.74 390.239V418.319H90.9306V390.24L156.74 390.239ZM158.979 390.239H224.788V418.319H158.978L158.979 390.239ZM227.027 390.239H292.835V418.319H227.026L227.027 390.239ZM295.074 390.239H428.928V418.319H295.072L295.074 390.239ZM431.168 390.239H496.976V418.319H431.166L431.168 390.239ZM499.215 390.239H565.024V418.319H499.213L499.215 390.239ZM567.263 390.239H633.071V418.319H567.263V390.239ZM567.263 388.086V360.006H633.071V388.087L567.263 388.086ZM635.31 360.004H701.119V388.086H635.307L635.31 360.004ZM635.31 357.851V329.772H701.119V357.853L635.31 357.851ZM635.31 327.617V299.539H701.119V327.62L635.31 327.617ZM635.31 297.383V269.305H701.119V297.385L635.31 297.383ZM635.31 267.15V239.071H701.119V267.152L635.31 267.15ZM635.31 236.916V208.837H701.119V236.918L635.31 236.916ZM635.31 206.682V178.603H701.119V206.684L635.31 206.682ZM635.31 176.448V148.37H701.119V176.451L635.31 176.448ZM635.31 146.214V118.136H701.119V146.217L635.31 146.214ZM635.31 115.981V87.9019H701.119V115.981H635.31ZM88.6927 57.6681V85.7493H22.8842V57.6681H88.6927ZM22.8842 390.24H88.6927V418.319H22.8842V390.24ZM635.307 418.319V390.24H701.116V418.319H635.307Z" fill="#E6E6E6"/>
</svg>
