<svg width="738" height="524" viewBox="0 0 738 524" fill="none" xmlns="http://www.w3.org/2000/svg">
<path d="M725.433 0H12.5667C9.2064 0.0335707 5.99621 1.4356 3.64041 3.89853C1.2846 6.36147 -0.0245011 9.68418 0.000347388 13.1378V510.89C-0.0190933 514.339 1.2926 517.656 3.64801 520.113C6.00342 522.57 9.21053 523.968 12.5667 524H725.433C728.789 523.968 731.996 522.57 734.352 520.113C736.707 517.656 738.019 514.339 738 510.89V13.1378C738.024 9.68451 736.716 6.36208 734.36 3.8992C732.005 1.43632 728.795 0.0340699 725.435 0H725.433Z" fill="#090814"/>
<path d="M704.366 2.60254H13.3227C10.0892 2.60882 6.99026 3.93322 4.70583 6.2851C2.42139 8.63698 1.13809 11.8242 1.1376 15.1474V490.459C1.14224 493.779 2.42754 496.962 4.71169 499.309C6.99583 501.657 10.0925 502.978 13.3227 502.982H704.366C707.596 502.978 710.693 501.657 712.977 499.309C715.261 496.962 716.546 493.779 716.551 490.459V15.1483C716.551 11.8262 715.269 8.63985 712.986 6.28811C710.702 3.93637 707.605 2.61127 704.373 2.60348L704.366 2.60254Z" fill="white"/>
<path d="M521.303 201.448H521.299C520.523 201.448 519.897 201.228 519.9 200.959L520.602 126.25C520.602 125.981 521.232 125.764 522.006 125.764H522.01C522.786 125.764 523.412 125.984 523.409 126.253L522.707 200.963C522.705 201.23 522.077 201.448 521.303 201.448Z" fill="#D6D6E3"/>
<path d="M341.626 375.82H341.622C340.846 375.82 340.221 375.535 340.223 375.187L340.925 281.202C340.925 280.855 341.555 280.573 342.329 280.573H342.334C343.109 280.573 343.735 280.857 343.732 281.206L343.031 375.19C343.028 375.539 342.4 375.82 341.626 375.82Z" fill="#D6D6E3"/>
<path d="M208.273 241.842H208.269C207.493 241.842 206.868 241.652 206.869 241.423L207.571 178.383C207.571 178.153 208.201 177.967 208.975 177.966H208.98C209.755 177.966 210.381 178.156 210.378 178.386L209.677 241.426C209.675 241.656 209.047 241.842 208.273 241.842Z" fill="#D6D6E3"/>
<path d="M150.313 299.837C153.016 284.838 169.606 277.921 183.055 279.095C202.269 280.774 218.305 293.775 236.188 299.904C244.831 302.866 254.128 304.492 263.184 302.787C270.323 301.276 276.942 297.841 282.364 292.835C292.762 283.702 299.792 271.246 310.197 262.123C315.762 256.973 322.8 253.814 330.258 253.12C339.44 252.493 348.431 255.691 356.475 259.977C372.462 268.492 385.553 282.041 402.579 288.612C410.398 291.71 418.878 292.611 427.148 291.221C435.402 289.531 443.251 286.183 450.244 281.37C464.906 271.851 476.988 258.641 492.404 250.292C499.985 246.187 508.406 243.047 517.066 242.987C525.435 242.998 533.48 246.309 539.544 252.236C551.22 263.146 560.425 280.362 578.257 280.664C581.975 280.735 585.635 279.703 588.798 277.691C591.098 276.229 588.982 272.483 586.675 273.954C579.406 278.573 570.652 275.662 564.028 271.178C556.972 266.407 551.964 259.114 546.205 252.901C540.482 246.729 533.811 241.53 525.582 239.604C517.36 237.934 508.848 238.665 501.01 241.714C484.166 247.746 471.415 260.161 457.439 270.963C443.662 281.608 427.576 290.818 409.799 286.385C392.1 281.971 378.672 268.195 363.367 258.949C348.568 250.011 330.429 244.303 314.494 253.708C302.453 260.815 294.84 273.366 285.593 283.593C281.03 288.638 275.94 293.327 269.777 296.193C261.212 300.177 251.532 299.711 242.61 297.35C224.001 292.426 208.304 279.548 189.353 275.696C175.287 272.836 158.638 276.44 150.053 289.219C148.154 292.067 146.861 295.295 146.258 298.692C145.767 301.414 149.825 302.581 150.319 299.842L150.313 299.837Z" fill="#3F3D56"/>
<path d="M208.975 309.286C219.053 309.286 227.223 300.89 227.223 290.532C227.223 280.174 219.053 271.778 208.975 271.778C198.897 271.778 190.727 280.174 190.727 290.532C190.727 300.89 198.897 309.286 208.975 309.286Z" fill="#CB964F"/>
<path d="M340.223 269.613C350.302 269.613 358.471 261.217 358.471 250.859C358.471 240.502 350.302 232.105 340.223 232.105C330.145 232.105 321.975 240.502 321.975 250.859C321.975 261.217 330.145 269.613 340.223 269.613Z" fill="#CB964F"/>
<path d="M519.899 256.628C529.977 256.628 538.147 248.232 538.147 237.874C538.147 227.517 529.977 219.12 519.899 219.12C509.821 219.12 501.651 227.517 501.651 237.874C501.651 248.232 509.821 256.628 519.899 256.628Z" fill="#CB964F"/>
<path d="M228.22 158.649H188.194C186.851 158.652 185.525 158.347 184.312 157.758C183.098 157.168 182.028 156.307 181.178 155.239C180.308 154.147 179.685 152.87 179.355 151.5C179.025 150.13 178.996 148.701 179.27 147.318C182.485 130.874 182.485 113.936 179.27 97.4911C178.996 96.1079 179.025 94.6793 179.355 93.309C179.685 91.9388 180.308 90.6613 181.178 89.5693C182.01 88.5238 183.054 87.6773 184.237 87.0889C185.419 86.5005 186.713 86.1844 188.027 86.1625C200.195 80.0376 213.764 80.0376 228.36 86.1625C230.538 86.1977 232.631 87.0306 234.264 88.5113C235.896 89.992 236.961 92.0231 237.266 94.2389C239.737 112.93 239.737 131.879 237.266 150.57C236.958 152.81 235.873 154.862 234.211 156.346C232.549 157.83 230.422 158.648 228.22 158.649Z" fill="#E6E6E6"/>
<path d="M544.317 115.031H504.291C502.09 115.03 499.963 114.212 498.301 112.728C496.639 111.244 495.554 109.193 495.245 106.953C492.773 88.2618 492.773 69.3127 495.245 50.6214C495.55 48.408 496.613 46.3789 498.243 44.8985C499.873 43.4181 501.963 42.5833 504.138 42.544C516.732 36.7427 530.293 36.7436 544.456 42.544C545.775 42.5621 547.074 42.8766 548.262 43.4654C549.45 44.0543 550.498 44.9033 551.333 45.9528C552.203 47.0445 552.826 48.3219 553.156 49.692C553.486 51.0621 553.515 52.4905 553.241 53.8736C550.026 70.3183 550.026 87.2562 553.241 103.701C553.515 105.084 553.486 106.512 553.156 107.883C552.826 109.253 552.203 110.53 551.333 111.622C550.483 112.69 549.413 113.55 548.199 114.14C546.986 114.73 545.66 115.034 544.317 115.031Z" fill="#1E3A8A"/>
<path d="M540.125 64.0243H506.432C505.873 64.0243 505.338 63.7963 504.943 63.3905C504.548 62.9847 504.326 62.4342 504.326 61.8603C504.326 61.2864 504.548 60.7359 504.943 60.3301C505.338 59.9243 505.873 59.6963 506.432 59.6963H540.125C540.684 59.6963 541.219 59.9243 541.614 60.3301C542.009 60.7359 542.231 61.2864 542.231 61.8603C542.231 62.4342 542.009 62.9847 541.614 63.3905C541.219 63.7963 540.684 64.0243 540.125 64.0243Z" fill="white"/>
<path d="M540.125 81.3363H506.432C505.873 81.3363 505.338 81.1083 504.943 80.7025C504.548 80.2967 504.326 79.7462 504.326 79.1723C504.326 78.5984 504.548 78.0479 504.943 77.6421C505.338 77.2363 505.873 77.0083 506.432 77.0083H540.125C540.684 77.0083 541.219 77.2363 541.614 77.6421C542.009 78.0479 542.231 78.5984 542.231 79.1723C542.231 79.7462 542.009 80.2967 541.614 80.7025C541.219 81.1083 540.684 81.3363 540.125 81.3363Z" fill="white"/>
<path d="M540.125 98.6483H506.432C505.873 98.6483 505.338 98.4203 504.943 98.0145C504.548 97.6087 504.326 97.0583 504.326 96.4843C504.326 95.9104 504.548 95.36 504.943 94.9541C505.338 94.5483 505.873 94.3203 506.432 94.3203H540.125C540.684 94.3203 541.219 94.5483 541.614 94.9541C542.009 95.36 542.231 95.9104 542.231 96.4843C542.231 97.0583 542.009 97.6087 541.614 98.0145C541.219 98.4203 540.684 98.6483 540.125 98.6483Z" fill="white"/>
<path d="M228.833 104.802H195.139C194.581 104.802 194.045 104.574 193.65 104.168C193.256 103.762 193.034 103.212 193.034 102.638C193.034 102.064 193.256 101.513 193.65 101.107C194.045 100.702 194.581 100.474 195.139 100.474H228.833C229.391 100.474 229.927 100.702 230.322 101.107C230.717 101.513 230.939 102.064 230.939 102.638C230.939 103.212 230.717 103.762 230.322 104.168C229.927 104.574 229.391 104.802 228.833 104.802Z" fill="white"/>
<path d="M228.833 122.113H195.139C194.581 122.113 194.045 121.885 193.65 121.479C193.256 121.074 193.034 120.523 193.034 119.949C193.034 119.375 193.256 118.825 193.65 118.419C194.045 118.013 194.581 117.785 195.139 117.785H228.833C229.391 117.785 229.927 118.013 230.322 118.419C230.717 118.825 230.939 119.375 230.939 119.949C230.939 120.523 230.717 121.074 230.322 121.479C229.927 121.885 229.391 122.113 228.833 122.113Z" fill="white"/>
<path d="M228.833 139.425H195.139C194.581 139.425 194.045 139.197 193.65 138.791C193.256 138.386 193.034 137.835 193.034 137.261C193.034 136.687 193.256 136.137 193.65 135.731C194.045 135.325 194.581 135.097 195.139 135.097H228.833C229.391 135.097 229.927 135.325 230.322 135.731C230.717 136.137 230.939 136.687 230.939 137.261C230.939 137.835 230.717 138.386 230.322 138.791C229.927 139.197 229.391 139.425 228.833 139.425Z" fill="white"/>
<path d="M363.366 467.808H323.34C321.138 467.806 319.011 466.988 317.349 465.504C315.687 464.02 314.602 461.97 314.293 459.729C311.821 441.038 311.821 422.09 314.293 403.399C314.597 401.19 315.656 399.165 317.279 397.685C318.903 396.206 320.985 395.367 323.155 395.32C336.188 388.127 349.772 388.125 363.534 395.32C364.847 395.343 366.139 395.66 367.321 396.248C368.503 396.837 369.546 397.683 370.377 398.728C371.247 399.82 371.87 401.097 372.2 402.467C372.53 403.837 372.559 405.266 372.285 406.649C369.07 423.094 369.07 440.033 372.285 456.478C372.559 457.861 372.53 459.29 372.2 460.66C371.87 462.03 371.247 463.307 370.377 464.399C369.528 465.466 368.458 466.326 367.245 466.916C366.033 467.505 364.707 467.81 363.366 467.808Z" fill="#1E3A8A"/>
<path d="M360.782 412.871H327.088C326.53 412.871 325.994 412.644 325.599 412.238C325.205 411.832 324.983 411.281 324.983 410.707C324.983 410.134 325.205 409.583 325.599 409.177C325.994 408.771 326.53 408.543 327.088 408.543H360.782C361.34 408.543 361.876 408.771 362.271 409.177C362.666 409.583 362.888 410.134 362.888 410.707C362.888 411.281 362.666 411.832 362.271 412.238C361.876 412.644 361.34 412.871 360.782 412.871Z" fill="white"/>
<path d="M360.782 430.184H327.088C326.53 430.184 325.994 429.956 325.599 429.55C325.205 429.144 324.983 428.593 324.983 428.019C324.983 427.446 325.205 426.895 325.599 426.489C325.994 426.083 326.53 425.855 327.088 425.855H360.782C361.34 425.855 361.876 426.083 362.271 426.489C362.666 426.895 362.888 427.446 362.888 428.019C362.888 428.593 362.666 429.144 362.271 429.55C361.876 429.956 361.34 430.184 360.782 430.184Z" fill="white"/>
<path d="M360.782 447.495H327.088C326.53 447.495 325.994 447.267 325.599 446.861C325.205 446.455 324.983 445.905 324.983 445.331C324.983 444.757 325.205 444.207 325.599 443.801C325.994 443.395 326.53 443.167 327.088 443.167H360.782C361.34 443.167 361.876 443.395 362.271 443.801C362.666 444.207 362.888 444.757 362.888 445.331C362.888 445.905 362.666 446.455 362.271 446.861C361.876 447.267 361.34 447.495 360.782 447.495Z" fill="white"/>
<path d="M641.157 307.412L652.326 312.852C647.743 306.279 643.794 296.013 641.68 287.844C638.1 295.454 632.33 304.765 626.618 310.329L638.427 307.207C631.15 343.86 603.78 370.174 572.436 370.174V372.965C605.179 372.961 633.727 345.545 641.157 307.412Z" fill="#3F3D56"/>
<path d="M606.344 261.999H676.945C679.939 261.999 682.376 266.142 682.376 271.234C682.376 276.326 679.939 280.469 676.945 280.469H606.344C603.35 280.469 600.914 276.326 600.914 271.234C600.914 266.142 603.35 261.999 606.344 261.999Z" fill="#CB964F"/>
<path d="M577.473 406.323L545.648 435.403C543.678 437.201 541.093 438.121 538.463 437.963C535.832 437.804 533.37 436.58 531.617 434.558C518.391 423.762 507.541 411.599 499.713 397.684C497.964 395.659 497.068 393.003 497.223 390.299C497.377 387.596 498.568 385.065 500.536 383.264L532.357 354.184C534.327 352.386 536.912 351.466 539.542 351.624C542.173 351.782 544.635 353.007 546.388 355.029L578.292 391.903C580.041 393.928 580.937 396.584 580.782 399.288C580.628 401.991 579.437 404.522 577.469 406.323H577.473Z" fill="white"/>
<path d="M577.473 406.323L545.648 435.403C543.678 437.201 541.093 438.121 538.463 437.963C535.832 437.804 533.37 436.58 531.617 434.558C516.528 425.063 505.223 413.194 499.713 397.684C497.964 395.659 497.068 393.003 497.223 390.299C497.377 387.596 498.568 385.065 500.536 383.264L532.357 354.184C534.327 352.386 536.912 351.466 539.542 351.624C542.173 351.782 544.635 353.007 546.388 355.029L578.292 391.903C580.041 393.928 580.937 396.584 580.782 399.288C580.628 401.991 579.437 404.522 577.469 406.323H577.473ZM501.445 384.313C499.746 385.868 498.717 388.052 498.584 390.386C498.45 392.72 499.224 395.013 500.734 396.761C507.792 411.474 518.672 423.598 532.638 433.635C534.151 435.381 536.276 436.438 538.547 436.575C540.818 436.712 543.049 435.917 544.75 434.364L576.573 405.281C578.272 403.726 579.301 401.541 579.434 399.207C579.567 396.873 578.793 394.581 577.283 392.832L545.379 355.959C543.866 354.213 541.741 353.155 539.47 353.018C537.199 352.881 534.968 353.676 533.267 355.228L501.445 384.313Z" fill="#3F3D56"/>
<path d="M548.545 379.546L522.329 403.507C522.065 403.756 521.756 403.948 521.419 404.073C521.082 404.198 520.724 404.253 520.366 404.234C520.009 404.216 519.658 404.124 519.335 403.965C519.012 403.806 518.724 403.582 518.486 403.307C518.248 403.032 518.065 402.711 517.949 402.363C517.833 402.014 517.786 401.646 517.81 401.279C517.834 400.912 517.928 400.553 518.089 400.224C518.249 399.894 518.471 399.601 518.742 399.361L544.959 375.4C545.223 375.151 545.532 374.959 545.869 374.834C546.206 374.709 546.563 374.654 546.921 374.673C547.279 374.692 547.629 374.783 547.952 374.942C548.275 375.102 548.564 375.325 548.802 375.6C549.04 375.875 549.222 376.196 549.338 376.545C549.454 376.893 549.502 377.261 549.478 377.629C549.454 377.996 549.359 378.355 549.199 378.684C549.039 379.013 548.817 379.306 548.545 379.546Z" fill="#1E3A8A"/>
<path d="M558.472 391.014L532.256 414.975C531.992 415.219 531.683 415.408 531.347 415.529C531.011 415.651 530.656 415.703 530.3 415.683C529.945 415.662 529.597 415.57 529.277 415.411C528.956 415.252 528.67 415.029 528.433 414.756C528.197 414.483 528.015 414.164 527.899 413.819C527.783 413.473 527.734 413.107 527.756 412.742C527.778 412.377 527.87 412.02 528.027 411.692C528.183 411.364 528.401 411.07 528.669 410.829L554.885 386.868C555.149 386.619 555.458 386.427 555.795 386.302C556.132 386.177 556.49 386.122 556.848 386.141C557.205 386.159 557.556 386.251 557.879 386.41C558.202 386.569 558.49 386.793 558.728 387.068C558.966 387.343 559.149 387.664 559.265 388.012C559.381 388.361 559.428 388.729 559.404 389.096C559.38 389.464 559.286 389.822 559.125 390.152C558.965 390.481 558.743 390.774 558.472 391.014H558.472Z" fill="#1E3A8A"/>
<path d="M538.621 368.074L512.404 392.034C512.141 392.283 511.831 392.476 511.494 392.601C511.157 392.726 510.8 392.78 510.442 392.762C510.084 392.743 509.734 392.652 509.411 392.492C509.088 392.333 508.799 392.109 508.561 391.834C508.323 391.559 508.141 391.238 508.025 390.89C507.909 390.542 507.861 390.173 507.885 389.806C507.909 389.439 508.004 389.08 508.164 388.751C508.324 388.422 508.547 388.129 508.818 387.888L535.034 363.928C535.298 363.679 535.608 363.486 535.944 363.361C536.281 363.236 536.639 363.182 536.997 363.2C537.354 363.219 537.705 363.311 538.028 363.47C538.351 363.629 538.64 363.853 538.878 364.128C539.116 364.403 539.298 364.724 539.414 365.072C539.53 365.42 539.577 365.789 539.554 366.156C539.53 366.523 539.435 366.882 539.275 367.211C539.115 367.54 538.892 367.834 538.621 368.074Z" fill="#1E3A8A"/>
<path d="M109.508 268.622L115.882 264.397C113.267 269.503 111.014 277.478 109.808 283.824C107.767 277.912 104.475 270.679 101.216 266.359L107.955 268.785C103.801 240.312 88.1901 219.871 70.3103 219.871V217.703C88.9849 217.703 105.27 239 109.508 268.622Z" fill="#3F3D56"/>
<path d="M53.2807 320.104H123.881C126.876 320.104 129.312 316.094 129.312 311.165C129.312 306.237 126.876 302.227 123.881 302.227H53.2807C50.2861 302.227 47.85 306.237 47.85 311.165C47.85 316.094 50.2842 320.104 53.2807 320.104Z" fill="#CB964F"/>
<path d="M48.5959 207.026H91.1773C93.8119 207.023 96.3378 205.946 98.2008 204.032C100.064 202.117 101.112 199.521 101.115 196.813V147.471C101.112 144.763 100.064 142.167 98.2008 140.252C96.3378 138.338 93.8119 137.261 91.1773 137.258H48.5959C45.9617 137.262 43.4365 138.339 41.5741 140.253C39.7118 142.168 38.6642 144.763 38.6613 147.471V196.814C38.6645 199.521 39.7121 202.117 41.5745 204.031C43.4368 205.945 45.9619 207.022 48.5959 207.026Z" fill="white"/>
<path d="M48.5959 207.026H91.1773C93.8118 207.023 96.3374 205.946 98.2002 204.031C100.063 202.117 101.111 199.521 101.114 196.813V147.471C101.111 144.763 100.063 142.167 98.1999 140.252C96.3369 138.338 93.811 137.261 91.1764 137.258H48.5959C45.9616 137.261 43.436 138.338 41.5733 140.252C39.7105 142.167 38.6626 144.762 38.6595 147.47C33.8879 162.995 34.3725 179.536 38.6595 196.813C38.6624 199.521 39.7102 202.117 41.573 204.031C43.4357 205.946 45.9614 207.023 48.5959 207.026ZM91.1773 138.653C93.4522 138.655 95.6336 139.584 97.2422 141.238C98.8509 142.891 99.7552 145.133 99.7567 147.471V196.814C99.7552 199.152 98.8509 201.394 97.2422 203.047C95.6336 204.701 93.4522 205.63 91.1773 205.632H48.5959C46.3209 205.63 44.1396 204.701 42.5309 203.047C40.9223 201.394 40.0179 199.152 40.0165 196.814V147.471C40.0179 145.133 40.9223 142.891 42.5309 141.238C44.1396 139.584 46.3209 138.655 48.5959 138.653H91.1773Z" fill="#3F3D56"/>
<path d="M52.8948 167.258H87.9796C88.6867 167.245 89.3605 166.946 89.8559 166.428C90.3513 165.909 90.6289 165.211 90.6289 164.484C90.6289 163.758 90.3513 163.06 89.8559 162.541C89.3605 162.022 88.6867 161.724 87.9796 161.711H52.8948C52.5362 161.704 52.1799 161.771 51.8467 161.907C51.5134 162.043 51.21 162.247 50.954 162.505C50.6981 162.763 50.4948 163.071 50.356 163.411C50.2172 163.751 50.1457 164.116 50.1457 164.484C50.1457 164.853 50.2172 165.218 50.356 165.558C50.4948 165.898 50.6981 166.206 50.954 166.464C51.21 166.722 51.5134 166.926 51.8467 167.062C52.1799 167.198 52.5362 167.265 52.8948 167.258Z" fill="#F2F2F2"/>
<path d="M52.8948 182.607H87.9796C88.6867 182.593 89.3605 182.295 89.8559 181.776C90.3513 181.258 90.6289 180.56 90.6289 179.833C90.6289 179.106 90.3513 178.408 89.8559 177.89C89.3605 177.371 88.6867 177.073 87.9796 177.06H52.8948C52.5362 177.053 52.1799 177.119 51.8467 177.256C51.5134 177.392 51.21 177.595 50.954 177.854C50.6981 178.112 50.4948 178.42 50.356 178.76C50.2172 179.1 50.1457 179.465 50.1457 179.833C50.1457 180.202 50.2172 180.567 50.356 180.907C50.4948 181.246 50.6981 181.554 50.954 181.813C51.21 182.071 51.5134 182.274 51.8467 182.41C52.1799 182.547 52.5362 182.614 52.8948 182.607Z" fill="#F2F2F2"/>
</svg>
