<svg width="23" height="23" viewBox="0 0 23 23" fill="none" xmlns="http://www.w3.org/2000/svg">
<path fill-rule="evenodd" clip-rule="evenodd" d="M15.6026 7.39671C15.6695 7.46347 15.7226 7.54279 15.7588 7.63011C15.7951 7.71743 15.8137 7.81104 15.8137 7.90558C15.8137 8.00012 15.7951 8.09373 15.7588 8.18105C15.7226 8.26838 15.6695 8.34769 15.6026 8.41446L11.2901 12.727C11.2233 12.7939 11.144 12.847 11.0567 12.8832C10.9693 12.9195 10.8757 12.9381 10.7812 12.9381C10.6866 12.9381 10.593 12.9195 10.5057 12.8832C10.4184 12.847 10.3391 12.7939 10.2723 12.727L8.11606 10.5707C8.04923 10.5039 7.99622 10.4245 7.96005 10.3372C7.92389 10.2499 7.90527 10.1563 7.90527 10.0618C7.90527 9.96732 7.92389 9.87374 7.96005 9.78643C7.99622 9.69912 8.04923 9.61978 8.11606 9.55296C8.18288 9.48613 8.26222 9.43312 8.34953 9.39695C8.43684 9.36079 8.53042 9.34217 8.62493 9.34217C8.71944 9.34217 8.81302 9.36079 8.90033 9.39695C8.98765 9.43312 9.06698 9.48613 9.13381 9.55296L10.7812 11.2018L14.5848 7.39671C14.6516 7.32977 14.7309 7.27667 14.8182 7.24043C14.9055 7.2042 14.9991 7.18555 15.0937 7.18555C15.1882 7.18555 15.2818 7.2042 15.3692 7.24043C15.4565 7.27667 15.5358 7.32977 15.6026 7.39671Z" fill="#CB964F"/>
<path d="M2.875 2.875C2.875 2.1125 3.1779 1.38124 3.71707 0.842068C4.25623 0.302901 4.9875 0 5.75 0L17.25 0C18.0125 0 18.7438 0.302901 19.2829 0.842068C19.8221 1.38124 20.125 2.1125 20.125 2.875V22.2812C20.1249 22.4113 20.0896 22.5388 20.0228 22.6503C19.9559 22.7619 19.8601 22.8532 19.7455 22.9145C19.6309 22.9759 19.5018 23.005 19.3719 22.9988C19.242 22.9926 19.1163 22.9513 19.0081 22.8792L11.5 18.8327L3.99194 22.8792C3.8837 22.9513 3.75796 22.9926 3.62809 22.9988C3.49823 23.005 3.36912 22.9759 3.2545 22.9145C3.13988 22.8532 3.04406 22.7619 2.97723 22.6503C2.9104 22.5388 2.87507 22.4113 2.875 22.2812V2.875ZM5.75 1.4375C5.36875 1.4375 5.00312 1.58895 4.73353 1.85853C4.46395 2.12812 4.3125 2.49375 4.3125 2.875V20.9386L11.1018 17.3708C11.2198 17.2923 11.3583 17.2504 11.5 17.2504C11.6417 17.2504 11.7802 17.2923 11.8982 17.3708L18.6875 20.9386V2.875C18.6875 2.49375 18.536 2.12812 18.2665 1.85853C17.9969 1.58895 17.6312 1.4375 17.25 1.4375H5.75Z" fill="#CB964F"/>
</svg>
