<svg width="22" height="22" viewBox="0 0 22 22" fill="none" xmlns="http://www.w3.org/2000/svg">
<path d="M12.188 0.0633658C10.8735 -0.265259 9.6525 0.728866 9.5645 2.01587C9.4655 3.46099 9.24825 4.78787 8.976 5.57712C8.80412 6.07212 8.31737 6.96999 7.546 7.83074C6.78012 8.68737 5.78325 9.45049 4.61588 9.76949C3.69188 10.0211 2.75 10.8214 2.75 11.9901V17.4915C2.75 18.6534 3.68775 19.5045 4.741 19.6159C6.21225 19.7726 6.8915 20.1865 7.5845 20.61L7.6505 20.6512C8.0245 20.8781 8.44525 21.1297 8.98425 21.3167C9.53012 21.5037 10.1681 21.6151 11 21.6151H15.8125C17.1009 21.6151 18.0111 20.9592 18.4717 20.1521C18.6944 19.7712 18.8147 19.3392 18.821 18.8981C18.821 18.6891 18.7894 18.4691 18.7151 18.2601C18.9915 17.8985 19.2376 17.4654 19.3861 17.0212C19.5374 16.5675 19.6226 15.9735 19.3916 15.4414C19.4865 15.2626 19.5566 15.0715 19.6102 14.8872C19.7161 14.516 19.7656 14.1062 19.7656 13.7089C19.7656 13.3129 19.7161 12.9045 19.6102 12.5319C19.5633 12.3602 19.4997 12.1935 19.4205 12.0341C19.6613 11.6916 19.8162 11.2962 19.8722 10.8812C19.9282 10.4663 19.8836 10.044 19.7422 9.64987C19.459 8.83587 18.8045 8.13737 18.0922 7.90087C16.9276 7.51312 15.6131 7.52137 14.6327 7.61074C14.4292 7.62913 14.2261 7.65205 14.0236 7.67949C14.4987 5.63656 14.4694 3.50871 13.9384 1.47962C13.8456 1.15455 13.6678 0.860158 13.4231 0.626882C13.1785 0.393605 12.876 0.229916 12.5469 0.152741L12.188 0.0633658ZM15.8125 20.2415H11C10.2987 20.2415 9.81337 20.1466 9.4325 20.016C9.04612 19.8826 8.73675 19.7025 8.3655 19.4756L8.3105 19.4426C7.54737 18.9765 6.66325 18.4375 4.88675 18.2491C4.42887 18.1996 4.125 17.8504 4.125 17.4929V11.9901C4.125 11.6409 4.43575 11.2435 4.9775 11.0964C6.48312 10.6839 7.69587 9.72687 8.57175 8.74787C9.44487 7.77162 10.0347 6.71974 10.274 6.02812C10.6081 5.06562 10.8336 3.59712 10.9367 2.10937C10.9711 1.61162 11.4317 1.29262 11.8539 1.39712L12.2141 1.48787C12.4341 1.54287 12.5689 1.68449 12.6101 1.83849C13.1717 3.97802 13.1024 6.23429 12.4107 8.33537C12.3716 8.45222 12.3646 8.57746 12.3904 8.69796C12.4163 8.81846 12.474 8.92979 12.5577 9.02031C12.6413 9.11083 12.7477 9.17721 12.8658 9.21249C12.9839 9.24777 13.1093 9.25067 13.2289 9.22087L13.233 9.21949L13.2522 9.21537L13.332 9.19612C13.8022 9.09655 14.2779 9.02447 14.7565 8.98024C15.6681 8.89774 16.7599 8.90599 17.6577 9.20574C17.8984 9.28549 18.2765 9.61824 18.4415 10.0995C18.5886 10.523 18.5611 11.0207 18.0757 11.5047L17.5904 11.9901L18.0757 12.4769C18.1349 12.536 18.2201 12.6707 18.2875 12.91C18.3535 13.1396 18.3906 13.4187 18.3906 13.7089C18.3906 14.0004 18.3535 14.2781 18.2875 14.5091C18.2187 14.7484 18.1349 14.8831 18.0757 14.9422L17.5904 15.4276L18.0757 15.9144C18.1404 15.979 18.2256 16.1577 18.0826 16.5854C17.9346 17.0005 17.6976 17.3783 17.3882 17.6922L16.9029 18.1776L17.3882 18.6644C17.3965 18.6712 17.4446 18.7331 17.4446 18.8981C17.4366 19.0995 17.3795 19.2958 17.2782 19.4701C17.0514 19.8661 16.5866 20.2415 15.8125 20.2415Z" fill="#CB964F"/>
</svg>
