<svg width="25" height="25" viewBox="0 0 25 25" fill="none" xmlns="http://www.w3.org/2000/svg">
<path d="M18.0223 10.9373H24.1661C24.2403 10.9374 24.313 10.9585 24.3756 10.9984C24.4382 11.0382 24.4882 11.0951 24.5197 11.1623C24.5512 11.2295 24.5628 11.3043 24.5533 11.3779C24.5438 11.4515 24.5136 11.5209 24.4661 11.5779L21.3942 15.2655C21.3575 15.3094 21.3117 15.3448 21.2598 15.369C21.208 15.3933 21.1514 15.4059 21.0942 15.4059C21.0369 15.4059 20.9804 15.3933 20.9286 15.369C20.8767 15.3448 20.8308 15.3094 20.7942 15.2655L17.7223 11.5779C17.6748 11.5209 17.6445 11.4515 17.635 11.3779C17.6255 11.3043 17.6372 11.2295 17.6687 11.1623C17.7002 11.0951 17.7502 11.0382 17.8128 10.9984C17.8754 10.9585 17.9481 10.9374 18.0223 10.9373ZM0.834815 14.0623H6.97857C7.05279 14.0623 7.12547 14.0411 7.1881 14.0013C7.25072 13.9614 7.3007 13.9046 7.33218 13.8374C7.36365 13.7701 7.37533 13.6953 7.36583 13.6217C7.35634 13.5481 7.32607 13.4787 7.27856 13.4217L4.20669 9.7342C4.17003 9.69024 4.12416 9.65487 4.07231 9.6306C4.02047 9.60633 3.96393 9.59375 3.90669 9.59375C3.84945 9.59375 3.79291 9.60633 3.74107 9.6306C3.68922 9.65487 3.64335 9.69024 3.60669 9.7342L0.534815 13.4217C0.487311 13.4787 0.45704 13.5481 0.447545 13.6217C0.438051 13.6953 0.449726 13.7701 0.481204 13.8374C0.512682 13.9046 0.56266 13.9614 0.625285 14.0013C0.68791 14.0411 0.76059 14.0623 0.834815 14.0623Z" fill="#CB964F"/>
<path fill-rule="evenodd" clip-rule="evenodd" d="M12.5002 4.68796C10.0752 4.68796 7.90645 5.79264 6.47363 7.52858C6.40965 7.61151 6.32965 7.68072 6.23838 7.73211C6.14712 7.7835 6.04645 7.81601 5.94237 7.82771C5.83828 7.83941 5.73291 7.83007 5.63251 7.80023C5.53211 7.77039 5.43874 7.72067 5.35794 7.65402C5.27714 7.58737 5.21057 7.50515 5.16219 7.41226C5.1138 7.31937 5.08459 7.21769 5.07629 7.11328C5.06799 7.00887 5.08076 6.90386 5.11386 6.80449C5.14696 6.70511 5.1997 6.61341 5.26895 6.53483C6.41299 5.14972 7.9308 4.12235 9.64186 3.57492C11.3529 3.02749 13.1852 2.98303 14.9208 3.44684C16.6564 3.91065 18.2222 4.86321 19.4321 6.19122C20.642 7.51922 21.4449 9.16679 21.7455 10.938H20.1564C19.7962 9.17332 18.8374 7.58734 17.4422 6.44841C16.047 5.30949 14.3012 4.68759 12.5002 4.68796ZM4.84395 14.063C5.13974 15.5077 5.83824 16.8392 6.85875 17.9038C7.87926 18.9684 9.18013 19.7225 10.6111 20.079C12.042 20.4356 13.5446 20.38 14.9453 19.9188C16.346 19.4575 17.5877 18.6094 18.5268 17.4723C18.5907 17.3894 18.6707 17.3202 18.762 17.2688C18.8533 17.2174 18.9539 17.1849 19.058 17.1732C19.1621 17.1615 19.2675 17.1708 19.3679 17.2007C19.4683 17.2305 19.5617 17.2802 19.6424 17.3469C19.7232 17.4135 19.7898 17.4958 19.8382 17.5887C19.8866 17.6815 19.9158 17.7832 19.9241 17.8876C19.9324 17.992 19.9196 18.0971 19.8865 18.1964C19.8534 18.2958 19.8007 18.3875 19.7314 18.4661C18.5874 19.8512 17.0696 20.8786 15.3585 21.426C13.6475 21.9734 11.8152 22.0179 10.0796 21.5541C8.34402 21.0903 6.77817 20.1377 5.5683 18.8097C4.35843 17.4817 3.55546 15.8341 3.25488 14.063H4.84395Z" fill="#CB964F"/>
</svg>
