<svg width="22" height="22" viewBox="0 0 22 22" fill="none" xmlns="http://www.w3.org/2000/svg">
<path d="M12.188 21.5518C10.8735 21.8818 9.65388 20.8862 9.5645 19.5992C9.4655 18.1555 9.24825 16.8286 8.976 16.038C8.80413 15.543 8.31738 14.6465 7.546 13.7858C6.78013 12.9277 5.78325 12.1646 4.61588 11.847C3.69188 11.594 2.75 10.7937 2.75 9.625V4.125C2.75 2.96312 3.68775 2.112 4.741 1.99925C6.21225 1.84388 6.8915 1.42862 7.5845 1.00513L7.6505 0.96525C8.0245 0.737 8.44525 0.485375 8.98425 0.29975C9.53013 0.11 10.1681 0 11 0H15.8125C17.1009 0 18.0111 0.65725 18.4718 1.463C18.6973 1.85763 18.821 2.29763 18.821 2.71837C18.821 2.92738 18.7894 3.14737 18.7151 3.35637C18.9915 3.71662 19.2376 4.14975 19.3861 4.59387C19.5374 5.04763 19.6226 5.64163 19.3916 6.17513C19.4865 6.35388 19.5566 6.54362 19.6103 6.72925C19.7161 7.1005 19.7656 7.50887 19.7656 7.90625C19.7656 8.30363 19.7161 8.712 19.6103 9.08325C19.5621 9.24825 19.5003 9.41875 19.4205 9.58237C19.9623 10.3675 19.9953 11.2324 19.7423 11.9653C19.459 12.7792 18.8045 13.4777 18.0923 13.7142C16.9276 14.1034 15.6131 14.0938 14.6328 14.0044C14.4292 13.986 14.2261 13.9631 14.0236 13.9356C14.5011 15.9788 14.4719 18.1076 13.9384 20.1369C13.7486 20.8354 13.1821 21.3029 12.5469 21.4624L12.188 21.5518ZM15.8125 1.375H11C10.2988 1.375 9.81338 1.4685 9.4325 1.59913C9.04613 1.7325 8.73675 1.914 8.3655 2.1395L8.3105 2.17387C7.54738 2.63862 6.66325 3.17762 4.88675 3.36737C4.42887 3.4155 4.125 3.76613 4.125 4.12363V9.625C4.125 9.97563 4.43575 10.3716 4.9775 10.5188C6.48313 10.9313 7.69588 11.8896 8.57175 12.8686C9.44488 13.8449 10.0348 14.8968 10.274 15.587C10.6081 16.5495 10.8336 18.018 10.9368 19.5058C10.9711 20.0035 11.4318 20.3239 11.8539 20.218L12.2141 20.1286C12.4341 20.0736 12.5689 19.9306 12.6101 19.778C13.1719 17.638 13.1027 15.3812 12.4108 13.2797C12.3719 13.163 12.3652 13.0379 12.3912 12.9176C12.4171 12.7973 12.475 12.6862 12.5585 12.5959C12.6421 12.5056 12.7484 12.4394 12.8663 12.4041C12.9842 12.3689 13.1094 12.366 13.2289 12.3956H13.233L13.2523 12.4011L13.332 12.419C13.8022 12.5186 14.2779 12.5906 14.7565 12.6349C15.6681 12.7174 16.7599 12.7091 17.6578 12.4108C17.8984 12.3296 18.2765 11.9969 18.4415 11.5156C18.5886 11.0921 18.5611 10.5944 18.0758 10.1117L17.5904 9.625L18.0758 9.13825C18.1349 9.0805 18.2201 8.94575 18.2875 8.70512C18.3535 8.4755 18.3906 8.19637 18.3906 7.90625C18.3906 7.61613 18.3535 7.337 18.2875 7.10738C18.2188 6.86813 18.1349 6.732 18.0758 6.67425L17.5904 6.1875L18.0758 5.70075C18.1404 5.63613 18.2256 5.45875 18.0826 5.02975C17.9344 4.6151 17.6974 4.23782 17.3883 3.92425L16.9029 3.4375L17.3883 2.95075C17.3965 2.94387 17.4446 2.882 17.4446 2.717C17.4363 2.5161 17.3792 2.32024 17.2783 2.14637C17.05 1.749 16.5866 1.375 15.8125 1.375Z" fill="#CB964F"/>
</svg>
