<svg width="339" height="194" viewBox="0 0 339 194" fill="none" xmlns="http://www.w3.org/2000/svg">
<g clip-path="url(#clip0_158_3897)">
<path d="M71.3428 193.261H19.5519C19.5519 193.261 18.5021 177.517 24.7133 177.338C30.9245 177.159 30.2246 184.315 38.0109 174.476C45.7973 164.636 55.2452 165.173 56.47 170.987C57.6948 176.802 54.1081 181.453 60.6693 180.022C67.2305 178.591 76.6792 182.347 71.3428 193.261Z" fill="#E6E6E6"/>
<path d="M44.5734 193.264L44.3984 193.257C44.8062 182.892 46.9291 176.233 48.6386 172.471C50.4944 168.386 52.2827 166.733 52.3008 166.717L52.4172 166.85C52.3995 166.867 50.6321 168.504 48.7911 172.56C47.0911 176.306 44.9797 182.938 44.5734 193.264Z" fill="white"/>
<path d="M63.3174 193.286L63.1494 193.235C64.4519 188.843 66.7998 184.849 69.9828 181.611L70.1003 181.744C66.9409 184.959 64.6104 188.924 63.3174 193.286Z" fill="white"/>
<path d="M27.7098 193.274L27.5364 193.249C28.1011 189.363 27.5036 185.393 25.8224 181.861C25.1332 180.379 24.2209 179.017 23.1187 177.825L23.2398 177.695C24.357 178.902 25.2819 180.281 25.9808 181.781C27.6771 185.346 28.2798 189.352 27.7098 193.274Z" fill="white"/>
<path d="M78.3716 193.5H13.9663L13.9516 193.277C13.9148 192.723 13.093 179.633 17.241 174.962C17.6526 174.469 18.1606 174.069 18.7324 173.788C19.3042 173.508 19.9271 173.353 20.561 173.333C23.2648 173.254 24.964 174.29 26.3347 175.121C28.9179 176.688 30.6242 177.723 36.8291 169.882C43.5505 161.388 50.8031 159.56 54.9722 160.576C57.666 161.233 59.5225 163.088 60.0658 165.668C60.5815 168.111 60.4165 170.405 60.2846 172.25C60.1435 174.223 60.0323 175.781 60.825 176.488C61.488 177.077 62.8071 177.131 64.9804 176.656C69.4007 175.692 75.5699 176.517 78.666 180.608C80.3317 182.808 81.6441 186.808 78.4365 193.368L78.3716 193.5ZM14.4058 193.022H78.0817C80.472 188.063 80.5468 183.874 78.2958 180.901C75.4554 177.148 69.4965 176.161 65.078 177.125C62.7165 177.64 61.3097 177.555 60.5174 176.849C59.5482 175.986 59.6672 174.322 59.8175 172.216C59.9472 170.403 60.1082 168.146 59.6079 165.77C59.104 163.378 57.3746 161.655 54.8631 161.043C50.827 160.058 43.7756 161.863 37.1927 170.184C30.7339 178.346 28.7879 177.167 26.0956 175.532C24.708 174.691 23.1329 173.737 20.5739 173.811C20.0032 173.83 19.4426 173.97 18.9282 174.224C18.4139 174.477 17.9571 174.838 17.5873 175.283C13.8603 179.481 14.3148 191.252 14.4062 193.022H14.4058Z" fill="#2F2E41"/>
<path d="M288.813 193.767H225.377L225.364 193.403L222.335 104.826H291.854L288.813 193.767ZM226.088 193.014H288.102L291.092 105.579H223.098L226.088 193.014Z" fill="#3F3D56"/>
<path d="M240.509 121.238H235.684V182.29H240.509V121.238Z" fill="#3F3D56"/>
<path d="M259.508 121.238H254.683V182.29H259.508V121.238Z" fill="#3F3D56"/>
<path d="M278.506 121.238H273.681V182.29H278.506V121.238Z" fill="#3F3D56"/>
<path d="M332.165 130.837L331.854 130.636L253.057 79.7208L259.892 68.6621L260.204 68.8633L339 119.778L332.165 130.837ZM254.074 79.4865L331.936 129.797L337.983 120.013L260.122 69.7012L254.074 79.4865Z" fill="#3F3D56"/>
<path d="M313.141 75.6163C310.85 74.1342 308.192 73.3551 305.481 73.3713C302.771 73.3876 300.122 74.1986 297.849 75.7081C295.575 77.2176 293.773 79.3622 292.657 81.8875C291.54 84.4128 291.155 87.2126 291.547 89.9549L295.305 92.3826C294.36 90.1409 294.143 87.649 294.684 85.2717C295.225 82.8945 296.496 80.7567 298.311 79.1716C300.127 77.5864 302.39 76.6371 304.771 76.4626C307.152 76.2881 309.526 76.8977 311.543 78.2019C313.561 79.5062 315.117 81.4367 315.984 83.7108C316.852 85.9848 316.984 88.483 316.362 90.8395C315.74 93.196 314.397 95.287 312.528 96.8064C310.66 98.3258 308.365 99.1936 305.98 99.283L309.737 101.711C312.328 100.897 314.637 99.3411 316.389 97.2263C318.141 95.1116 319.263 92.5274 319.621 89.7803C319.98 87.0331 319.56 84.2384 318.412 81.7279C317.264 79.2173 315.436 77.0962 313.144 75.6163H313.141Z" fill="#3F3D56"/>
<path d="M334.836 193.246H0V193.999H334.836V193.246Z" fill="#3F3D56"/>
<path d="M146.251 188.106H140.886L138.333 166.949H146.253L146.251 188.106Z" fill="#FEB8B8"/>
<path d="M130.541 193.199H147.401V186.539H136.964C135.261 186.539 133.627 187.231 132.422 188.463C131.217 189.695 130.541 191.365 130.541 193.107V193.199Z" fill="#2F2E41"/>
<path d="M144.366 155.323L148.066 159.295L164.809 146.592L159.348 140.73L144.366 155.323Z" fill="#FEB8B8"/>
<path d="M151.879 161.114L144.678 153.389L139.961 157.984L151.595 170.465L151.66 170.402C152.271 169.807 152.761 169.094 153.103 168.305C153.444 167.517 153.63 166.667 153.651 165.804C153.671 164.942 153.525 164.084 153.221 163.279C152.917 162.474 152.461 161.739 151.879 161.114Z" fill="#2F2E41"/>
<path d="M107.025 97.3594C106.686 96.8009 106.47 96.173 106.394 95.5201C106.317 94.8672 106.381 94.205 106.582 93.5803C106.783 92.9555 107.115 92.3833 107.555 91.904C107.996 91.4246 108.533 91.0498 109.131 90.8059L130.193 35.9199L138.403 40.9461L115.005 93.5998C115.34 94.6532 115.285 95.7954 114.85 96.81C114.416 97.8245 113.633 98.6409 112.649 99.1044C111.665 99.5678 110.549 99.6462 109.513 99.3246C108.476 99.0029 107.591 98.3037 107.025 97.3594Z" fill="#FEB8B8"/>
<path d="M186.97 101.293C186.329 101.246 185.705 101.056 185.143 100.735C184.581 100.415 184.094 99.9729 183.717 99.4396C183.341 98.9064 183.083 98.2951 182.962 97.6489C182.842 97.0027 182.861 96.3374 183.019 95.6997L151.947 46.0331L160.747 42.1914L188.682 92.4809C189.713 92.8219 190.587 93.5383 191.136 94.4941C191.685 95.45 191.872 96.5787 191.66 97.666C191.449 98.7533 190.855 99.7234 189.99 100.392C189.126 101.061 188.051 101.382 186.97 101.294V101.293Z" fill="#FEB8B8"/>
<path d="M130.4 91.8629L135.9 175.443L149.044 174.258L151.75 112.594L159.095 139.077L174.945 140.263L168.671 87.9102L130.4 91.8629Z" fill="#2F2E41"/>
<path d="M161.414 135.125L159.093 139.078L142.859 150.54L154.456 156.865C154.456 156.865 176.878 144.216 174.945 140.263L161.414 135.125Z" fill="#2F2E41"/>
<path d="M118.891 58.0481L123.466 44.8658C124.484 41.9327 126.061 39.2352 128.105 36.9293C130.149 34.6234 132.62 32.7549 135.376 31.432C141.568 29.0993 148.304 28.7223 154.709 30.3499L156.373 30.7725C160.813 31.8728 164.973 33.9271 168.576 36.7987C171.396 39.0713 173.932 41.9488 174.158 45.044C174.159 45.0506 174.161 45.057 174.164 45.0632C174.945 48.5629 175.331 66.745 175.331 66.745H168.443L169.532 91.2515L169.444 91.0741C169.444 91.0741 129.715 98.7616 129.715 94.8089V69.511L128.9 60.3512L118.891 58.0481Z" fill="#CCCCCC"/>
<path d="M155.974 26.9227C162.055 26.9227 166.984 21.8827 166.984 15.6655C166.984 9.44825 162.055 4.4082 155.974 4.4082C149.894 4.4082 144.964 9.44825 144.964 15.6655C144.964 21.8827 149.894 26.9227 155.974 26.9227Z" fill="#FEB8B8"/>
<path d="M157.623 10.6168L166.172 10.9671C167.248 10.9637 168.422 10.9249 169.241 10.2138C170.475 9.14079 170.268 7.11599 169.608 5.60342C167.766 1.39188 163.658 -0.116917 159.146 0.00699579C154.635 0.130909 149.908 1.69432 147.479 5.5812C145.049 9.46808 144.393 14.3764 145.308 18.893C146.366 16.5964 147.994 14.6236 150.031 13.1716C152.067 11.7196 154.441 10.8393 156.914 10.6183L157.623 10.6168Z" fill="#2F2E41"/>
<path d="M208.388 120.729L177.445 98.5549C177.158 98.348 176.962 98.0331 176.901 97.6791C176.841 97.3251 176.919 96.9609 177.121 96.6661L201.407 61.2349C201.609 60.941 201.917 60.741 202.263 60.6787C202.609 60.6165 202.966 60.697 203.254 60.9028L234.197 83.0764C234.484 83.2832 234.68 83.5982 234.74 83.9522C234.801 84.3062 234.723 84.6704 234.521 84.9651L210.236 120.395C210.034 120.69 209.726 120.89 209.379 120.952C209.033 121.015 208.676 120.934 208.388 120.729Z" fill="#CB964F"/>
<path d="M215.346 96.6678L197.19 83.6567C196.98 83.5062 196.801 83.3149 196.663 83.0937C196.526 82.8725 196.432 82.6258 196.387 82.3676C196.343 82.1094 196.349 81.8448 196.404 81.5888C196.46 81.3329 196.564 81.0907 196.711 80.876C196.859 80.6613 197.046 80.4783 197.262 80.3376C197.478 80.1968 197.72 80.101 197.972 80.0556C198.225 80.0102 198.484 80.016 198.734 80.0729C198.984 80.1298 199.221 80.2365 199.431 80.3869L217.588 93.398C218.012 93.7019 218.3 94.1656 218.39 94.6871C218.48 95.2086 218.363 95.7451 218.066 96.1787C217.769 96.6123 217.315 96.9074 216.805 96.9991C216.295 97.0908 215.77 96.9717 215.346 96.6678Z" fill="white"/>
<path d="M211.18 102.747L193.023 89.7358C192.813 89.5854 192.634 89.3942 192.496 89.173C192.358 88.9517 192.264 88.7049 192.22 88.4466C192.175 88.1883 192.181 87.9235 192.236 87.6674C192.292 87.4113 192.396 87.1689 192.544 86.9541C192.691 86.7393 192.878 86.5563 193.094 86.4155C193.311 86.2747 193.552 86.1789 193.805 86.1335C194.058 86.0882 194.317 86.0943 194.567 86.1513C194.818 86.2084 195.054 86.3153 195.264 86.4661L213.421 99.4772C213.845 99.7812 214.133 100.245 214.222 100.766C214.312 101.287 214.195 101.823 213.898 102.257C213.601 102.69 213.148 102.985 212.638 103.077C212.128 103.169 211.604 103.05 211.18 102.747Z" fill="white"/>
<path d="M206.968 108.892L188.811 95.8813C188.601 95.7308 188.422 95.5395 188.285 95.3183C188.147 95.0972 188.053 94.8504 188.009 94.5922C187.965 94.334 187.97 94.0694 188.026 93.8135C188.082 93.5575 188.186 93.3153 188.333 93.1006C188.48 92.8859 188.667 92.703 188.884 92.5622C189.1 92.4214 189.341 92.3256 189.594 92.2802C189.846 92.2348 190.105 92.2407 190.355 92.2975C190.606 92.3544 190.843 92.4611 191.053 92.6116L209.209 105.623C209.633 105.927 209.922 106.39 210.012 106.912C210.101 107.433 209.985 107.97 209.687 108.403C209.39 108.837 208.937 109.132 208.427 109.224C207.917 109.315 207.392 109.196 206.968 108.892Z" fill="white"/>
<path d="M215.296 84.6425L208.263 79.603C208.053 79.4526 207.874 79.2614 207.736 79.0401C207.598 78.8189 207.504 78.5721 207.459 78.3138C207.415 78.0555 207.42 77.7907 207.476 77.5346C207.532 77.2785 207.636 77.0361 207.783 76.8213C207.931 76.6065 208.118 76.4235 208.334 76.2827C208.551 76.1419 208.792 76.0461 209.045 76.0007C209.298 75.9554 209.556 75.9614 209.807 76.0185C210.057 76.0756 210.294 76.1825 210.504 76.3332L217.537 81.3728C217.961 81.6767 218.249 82.1404 218.339 82.6619C218.429 83.1833 218.312 83.7199 218.015 84.1535C217.718 84.5871 217.264 84.8822 216.754 84.9739C216.244 85.0656 215.72 84.9464 215.296 84.6425Z" fill="white"/>
</g>
<defs>
<clipPath id="clip0_158_3897">
<rect width="339" height="194" fill="white"/>
</clipPath>
</defs>
</svg>
