<svg width="51" height="61" viewBox="0 0 51 61" fill="none" xmlns="http://www.w3.org/2000/svg">
<circle cx="32.4308" cy="24.8462" r="3.4" fill="#CB964F"/>
<circle cx="26.1539" cy="16.7385" r="3.4" fill="#CB964F"/>
<circle cx="33.3461" cy="7.1923" r="4.05385" fill="#1E3A8A"/>
<circle cx="42.6307" cy="14.1231" r="4.44615" fill="#1E3A8A"/>
<circle cx="48.9077" cy="7.32308" r="2.09231" fill="#1E3A8A"/>
<circle cx="41.323" cy="2.09231" r="2.09231" fill="#1E3A8A"/>
<path d="M44.5924 25.2385L40.1462 29.4231C42.4477 33.2938 39.4488 36.0923 37.6616 37.0077H32.1693L29.8154 43.1539H37.6616C41.1139 43.6769 43.1539 46.6846 43.2847 48.3846C43.0754 51.4185 39.5795 53.9205 38.3154 54.5308H31.2539L36.877 60.5462C42.3693 59.7615 46.0308 55.3154 48.1231 51.9154C49.5877 45.5338 45.6821 40.9744 43.5462 39.4923C49.1954 34.2615 46.5975 27.8103 44.5924 25.2385Z" fill="#CB964F"/>
<path d="M6.01539 55.7077V46.1615L19.0923 60.5462H27.7231L13.8615 45.3769C22.2308 44.8538 25.5 38.7077 25.7615 35.1769C26.9123 26.8077 19.7897 23.2333 16.0846 22.4923H0V28.3769H16.0846C22.1 30.6 21.8385 37.1385 16.0846 39.3615H6.01539V33.2154C2.04 32.4831 0.348718 34.8282 0 36.0923V60.5462C3.66154 60.9646 5.5359 57.4949 6.01539 55.7077Z" fill="#1E3A8A"/>
</svg>
